<?xml version="1.0" encoding="UTF-8" standalone="no"?>
<!-- Created with Inkscape (http://www.inkscape.org/) -->

<svg
   width="54.814548mm"
   height="29.317265mm"
   viewBox="0 0 54.814547 29.317265"
   version="1.1"
   id="svg1"
   inkscape:version="1.4.2 (f4327f4, 2025-05-13)"
   sodipodi:docname="1d_flame.svg"
   xmlns:inkscape="http://www.inkscape.org/namespaces/inkscape"
   xmlns:sodipodi="http://sodipodi.sourceforge.net/DTD/sodipodi-0.dtd"
   xmlns="http://www.w3.org/2000/svg"
   xmlns:svg="http://www.w3.org/2000/svg">
  <sodipodi:namedview
     id="namedview1"
     pagecolor="#ffffff"
     bordercolor="#000000"
     borderopacity="0.25"
     inkscape:showpageshadow="2"
     inkscape:pageopacity="0.0"
     inkscape:pagecheckerboard="0"
     inkscape:deskcolor="#d1d1d1"
     inkscape:document-units="mm"
     inkscape:zoom="2.0535659"
     inkscape:cx="98.608963"
     inkscape:cy="87.895891"
     inkscape:window-width="1920"
     inkscape:window-height="1017"
     inkscape:window-x="-8"
     inkscape:window-y="-8"
     inkscape:window-maximized="1"
     inkscape:current-layer="layer1"
     showgrid="false" />
  <defs
     id="defs1">
    <clipPath
       clipPathUnits="userSpaceOnUse"
       id="clipPath104681">
      <path
         d="M 0,0 H 612 V 792 H 0 Z"
         transform="matrix(1,0,0,-1,-56.360001,785.39982)"
         id="path104681" />
    </clipPath>
    <clipPath
       clipPathUnits="userSpaceOnUse"
       id="clipPath104682">
      <path
         d="M 0,0 H 612 V 792 H 0 Z"
         transform="matrix(1,0,0,-1,-56.360001,776.21428)"
         id="path104682" />
    </clipPath>
    <clipPath
       clipPathUnits="userSpaceOnUse"
       id="clipPath104683">
      <path
         d="M 0,0 H 612 V 792 H 0 Z"
         transform="translate(0.0025)"
         id="path104683" />
    </clipPath>
    <clipPath
       clipPathUnits="userSpaceOnUse"
       id="clipPath104684">
      <path
         d="M 0,0 H 612 V 792 H 0 Z"
         transform="translate(0.0025)"
         id="path104684" />
    </clipPath>
    <clipPath
       clipPathUnits="userSpaceOnUse"
       id="clipPath104685">
      <path
         d="M 0,0 H 612 V 792 H 0 Z"
         transform="translate(0.0025)"
         id="path104685" />
    </clipPath>
    <clipPath
       clipPathUnits="userSpaceOnUse"
       id="clipPath104686">
      <path
         d="M 0,0 H 612 V 792 H 0 Z"
         transform="translate(0.0025)"
         id="path104686" />
    </clipPath>
    <clipPath
       clipPathUnits="userSpaceOnUse"
       id="clipPath104687">
      <path
         d="M 0,0 H 612 V 792 H 0 Z"
         transform="translate(0.0025)"
         id="path104687" />
    </clipPath>
    <clipPath
       clipPathUnits="userSpaceOnUse"
       id="clipPath104688">
      <path
         d="M 0,0 H 612 V 792 H 0 Z"
         transform="translate(0.0025)"
         id="path104688" />
    </clipPath>
    <clipPath
       clipPathUnits="userSpaceOnUse"
       id="clipPath104689">
      <path
         d="M 0,0 H 612 V 792 H 0 Z"
         transform="translate(0.0025)"
         id="path104689" />
    </clipPath>
    <clipPath
       clipPathUnits="userSpaceOnUse"
       id="clipPath104690">
      <path
         d="M 0,0 H 612 V 792 H 0 Z"
         transform="translate(0.0025)"
         id="path104690" />
    </clipPath>
    <clipPath
       clipPathUnits="userSpaceOnUse"
       id="clipPath104691">
      <path
         d="M 0,0 H 612 V 792 H 0 Z"
         transform="matrix(1,0,0,-1,-125.87,713.36692)"
         id="path104691" />
    </clipPath>
    <clipPath
       clipPathUnits="userSpaceOnUse"
       id="clipPath104693">
      <path
         d="M 0,0 H 612 V 792 H 0 Z"
         transform="matrix(1.3333333,0,0,-1.3333333,148569.65,988.8)"
         id="path104693" />
    </clipPath>
    <clipPath
       clipPathUnits="userSpaceOnUse"
       id="clipPath104692">
      <path
         d="m 225.199,694.31 h 160 v -88 h -160 z"
         transform="translate(0.0025)"
         id="path104692" />
    </clipPath>
    <clipPath
       clipPathUnits="userSpaceOnUse"
       id="clipPath104694">
      <path
         d="M 0,0 H 612 V 792 H 0 Z"
         transform="translate(0.0025)"
         id="path104694" />
    </clipPath>
    <clipPath
       clipPathUnits="userSpaceOnUse"
       id="clipPath104695">
      <path
         d="M 0,0 H 612 V 792 H 0 Z"
         transform="matrix(1,0,0,-1,-257.78001,662.71192)"
         id="path104695" />
    </clipPath>
    <clipPath
       clipPathUnits="userSpaceOnUse"
       id="clipPath104696">
      <path
         d="M 0,0 H 612 V 792 H 0 Z"
         transform="matrix(1,0,0,-1,-263.26251,661.66421)"
         id="path104696" />
    </clipPath>
    <clipPath
       clipPathUnits="userSpaceOnUse"
       id="clipPath104697">
      <path
         d="M 0,0 H 612 V 792 H 0 Z"
         transform="matrix(1,0,0,-1,-330.68001,663.73342)"
         id="path104697" />
    </clipPath>
    <clipPath
       clipPathUnits="userSpaceOnUse"
       id="clipPath104698">
      <path
         d="M 0,0 H 612 V 792 H 0 Z"
         transform="matrix(1,0,0,-1,-336.16251,661.77052)"
         id="path104698" />
    </clipPath>
    <clipPath
       clipPathUnits="userSpaceOnUse"
       id="clipPath104699">
      <path
         d="M 0,0 H 612 V 792 H 0 Z"
         transform="matrix(1,0,0,-1,-232.24251,669.05564)"
         id="path104699" />
    </clipPath>
    <clipPath
       clipPathUnits="userSpaceOnUse"
       id="clipPath104700">
      <path
         d="M 0,0 H 612 V 792 H 0 Z"
         transform="matrix(1,0,0,-1,-228.59001,659.13671)"
         id="path104700" />
    </clipPath>
    <clipPath
       clipPathUnits="userSpaceOnUse"
       id="clipPath104701">
      <path
         d="M 0,0 H 612 V 792 H 0 Z"
         transform="matrix(1,0,0,-1,-232.24251,654.48641)"
         id="path104701" />
    </clipPath>
    <clipPath
       clipPathUnits="userSpaceOnUse"
       id="clipPath104702">
      <path
         d="M 0,0 H 612 V 792 H 0 Z"
         transform="matrix(1,0,-0.26790304,-1,-47.247626,673.73212)"
         id="path104702" />
    </clipPath>
    <clipPath
       clipPathUnits="userSpaceOnUse"
       id="clipPath104703">
      <path
         d="M 0,0 H 612 V 792 H 0 Z"
         transform="matrix(1,0,0,-1,-226.81251,642.74042)"
         id="path104703" />
    </clipPath>
    <clipPath
       clipPathUnits="userSpaceOnUse"
       id="clipPath104704">
      <path
         d="M 0,0 H 612 V 792 H 0 Z"
         transform="matrix(1,0,0,-1,-232.24251,640.83212)"
         id="path104704" />
    </clipPath>
    <clipPath
       clipPathUnits="userSpaceOnUse"
       id="clipPath104705">
      <path
         d="M 0,0 H 612 V 792 H 0 Z"
         transform="matrix(1,0,-0.26790677,-1,-199.97546,669.05572)"
         id="path104705" />
    </clipPath>
    <clipPath
       clipPathUnits="userSpaceOnUse"
       id="clipPath104706">
      <path
         d="M 0,0 H 612 V 792 H 0 Z"
         transform="matrix(1,0,0,-1,-376.26501,659.13671)"
         id="path104706" />
    </clipPath>
    <clipPath
       clipPathUnits="userSpaceOnUse"
       id="clipPath104707">
      <path
         d="M 0,0 H 612 V 792 H 0 Z"
         transform="matrix(1,0,0,-1,-379.89501,655.37411)"
         id="path104707" />
    </clipPath>
    <clipPath
       clipPathUnits="userSpaceOnUse"
       id="clipPath104708">
      <path
         d="M 0,0 H 612 V 792 H 0 Z"
         transform="matrix(1,0,-0.26790304,-1,-196.34013,673.73212)"
         id="path104708" />
    </clipPath>
    <clipPath
       clipPathUnits="userSpaceOnUse"
       id="clipPath104709">
      <path
         d="M 0,0 H 612 V 792 H 0 Z"
         transform="matrix(1,0,0,-1,-374.46501,643.68182)"
         id="path104709" />
    </clipPath>
    <clipPath
       clipPathUnits="userSpaceOnUse"
       id="clipPath104710">
      <path
         d="M 0,0 H 612 V 792 H 0 Z"
         transform="matrix(1,0,0,-1,-379.89501,640.83212)"
         id="path104710" />
    </clipPath>
    <clipPath
       clipPathUnits="userSpaceOnUse"
       id="clipPath104711">
      <path
         d="M 0,0 H 612 V 792 H 0 Z"
         transform="translate(0.0025)"
         id="path104711" />
    </clipPath>
    <clipPath
       clipPathUnits="userSpaceOnUse"
       id="clipPath104712">
      <path
         d="M 0,0 H 612 V 792 H 0 Z"
         transform="translate(0.0025)"
         id="path104712" />
    </clipPath>
    <clipPath
       clipPathUnits="userSpaceOnUse"
       id="clipPath104713">
      <path
         d="M 0,0 H 612 V 792 H 0 Z"
         transform="matrix(1,0,0,-1,-281.57001,609.73162)"
         id="path104713" />
    </clipPath>
    <clipPath
       clipPathUnits="userSpaceOnUse"
       id="clipPath104714">
      <path
         d="M 0,0 H 612 V 792 H 0 Z"
         transform="matrix(1,0,0,-1,-125.87,592.18841)"
         id="path104714" />
    </clipPath>
    <clipPath
       clipPathUnits="userSpaceOnUse"
       id="clipPath104715">
      <path
         d="M 0,0 H 612 V 792 H 0 Z"
         transform="matrix(1,0,0,-1,-130.73,592.18841)"
         id="path104715" />
    </clipPath>
    <clipPath
       clipPathUnits="userSpaceOnUse"
       id="clipPath104716">
      <path
         d="M 0,0 H 612 V 792 H 0 Z"
         transform="matrix(1,0,0,-1,-125.87,581.72764)"
         id="path104716" />
    </clipPath>
    <clipPath
       clipPathUnits="userSpaceOnUse"
       id="clipPath104717">
      <path
         d="M 0,0 H 612 V 792 H 0 Z"
         transform="matrix(1,0,0,-1,-125.87,549.83911)"
         id="path104717" />
    </clipPath>
    <clipPath
       clipPathUnits="userSpaceOnUse"
       id="clipPath104718">
      <path
         d="M 0,0 H 612 V 792 H 0 Z"
         transform="matrix(1,0,0,-1,-125.87,536.09072)"
         id="path104718" />
    </clipPath>
    <clipPath
       clipPathUnits="userSpaceOnUse"
       id="clipPath104719">
      <path
         d="M 0,0 H 612 V 792 H 0 Z"
         transform="matrix(1,0,0,-1,-125.87,522.34234)"
         id="path104719" />
    </clipPath>
    <clipPath
       clipPathUnits="userSpaceOnUse"
       id="clipPath104720">
      <path
         d="M 0,0 H 612 V 792 H 0 Z"
         transform="matrix(1,0,0,-1,-125.87,508.59395)"
         id="path104720" />
    </clipPath>
    <clipPath
       clipPathUnits="userSpaceOnUse"
       id="clipPath104721">
      <path
         d="M 0,0 H 612 V 792 H 0 Z"
         transform="matrix(1,0,0,-1,-147.1775,508.59395)"
         id="path104721" />
    </clipPath>
    <clipPath
       clipPathUnits="userSpaceOnUse"
       id="clipPath104722">
      <path
         d="M 0,0 H 612 V 792 H 0 Z"
         transform="matrix(1,0,0,-1,-151.655,512.21021)"
         id="path104722" />
    </clipPath>
    <clipPath
       clipPathUnits="userSpaceOnUse"
       id="clipPath104723">
      <path
         d="M 0,0 H 612 V 792 H 0 Z"
         transform="matrix(1,0,0,-1,-151.055,505.91357)"
         id="path104723" />
    </clipPath>
    <clipPath
       clipPathUnits="userSpaceOnUse"
       id="clipPath104724">
      <path
         d="M 0,0 H 612 V 792 H 0 Z"
         transform="matrix(1,0,0,-1,-158.195,508.59382)"
         id="path104724" />
    </clipPath>
    <clipPath
       clipPathUnits="userSpaceOnUse"
       id="clipPath104725">
      <path
         d="M 0,0 H 612 V 792 H 0 Z"
         transform="matrix(1,0,0,-1,-135.83,494.84542)"
         id="path104725" />
    </clipPath>
    <clipPath
       clipPathUnits="userSpaceOnUse"
       id="clipPath104726">
      <path
         d="M 0,0 H 612 V 792 H 0 Z"
         transform="matrix(1,0,0,-1,-147.62,494.84542)"
         id="path104726" />
    </clipPath>
    <clipPath
       clipPathUnits="userSpaceOnUse"
       id="clipPath104727">
      <path
         d="M 0,0 H 612 V 792 H 0 Z"
         transform="matrix(1,0,0,-1,-154.745,494.84542)"
         id="path104727" />
    </clipPath>
    <clipPath
       clipPathUnits="userSpaceOnUse"
       id="clipPath104728">
      <path
         d="M 0,0 H 612 V 792 H 0 Z"
         transform="matrix(1,0,0,-1,-125.87,481.09703)"
         id="path104728" />
    </clipPath>
    <clipPath
       clipPathUnits="userSpaceOnUse"
       id="clipPath104729">
      <path
         d="M 0,0 H 612 V 792 H 0 Z"
         transform="matrix(1,0,0,-1,-125.87,467.34865)"
         id="path104729" />
    </clipPath>
    <clipPath
       clipPathUnits="userSpaceOnUse"
       id="clipPath104730">
      <path
         d="M 0,0 H 612 V 792 H 0 Z"
         transform="matrix(1,0,0,-1,-125.87,453.60026)"
         id="path104730" />
    </clipPath>
    <clipPath
       clipPathUnits="userSpaceOnUse"
       id="clipPath104731">
      <path
         d="M 0,0 H 612 V 792 H 0 Z"
         transform="matrix(1,0,0,-1,-375.07251,453.60026)"
         id="path104731" />
    </clipPath>
    <clipPath
       clipPathUnits="userSpaceOnUse"
       id="clipPath104732">
      <path
         d="M 0,0 H 612 V 792 H 0 Z"
         transform="matrix(1,0,0,-1,-379.55001,457.21641)"
         id="path104732" />
    </clipPath>
    <clipPath
       clipPathUnits="userSpaceOnUse"
       id="clipPath104733">
      <path
         d="M 0,0 H 612 V 792 H 0 Z"
         transform="matrix(1,0,0,-1,-378.95001,450.92046)"
         id="path104733" />
    </clipPath>
    <clipPath
       clipPathUnits="userSpaceOnUse"
       id="clipPath104734">
      <path
         d="M 0,0 H 612 V 792 H 0 Z"
         transform="matrix(1,0,0,-1,-383.60001,453.60001)"
         id="path104734" />
    </clipPath>
    <clipPath
       clipPathUnits="userSpaceOnUse"
       id="clipPath104735">
      <path
         d="M 0,0 H 612 V 792 H 0 Z"
         transform="matrix(1,0,0,-1,-388.00251,453.60001)"
         id="path104735" />
    </clipPath>
    <clipPath
       clipPathUnits="userSpaceOnUse"
       id="clipPath104736">
      <path
         d="M 0,0 H 612 V 792 H 0 Z"
         transform="matrix(1,0,0,-1,-125.87,439.85162)"
         id="path104736" />
    </clipPath>
    <clipPath
       clipPathUnits="userSpaceOnUse"
       id="clipPath104737">
      <path
         d="M 0,0 H 612 V 792 H 0 Z"
         transform="matrix(1,0,0,-1,-131.3375,443.46801)"
         id="path104737" />
    </clipPath>
    <clipPath
       clipPathUnits="userSpaceOnUse"
       id="clipPath104738">
      <path
         d="M 0,0 H 612 V 792 H 0 Z"
         transform="matrix(1,0,0,-1,-129.7475,437.17137)"
         id="path104738" />
    </clipPath>
    <clipPath
       clipPathUnits="userSpaceOnUse"
       id="clipPath104739">
      <path
         d="M 0,0 H 612 V 792 H 0 Z"
         transform="matrix(1,0,0,-1,-137.615,439.85161)"
         id="path104739" />
    </clipPath>
    <clipPath
       clipPathUnits="userSpaceOnUse"
       id="clipPath104740">
      <path
         d="M 0,0 H 612 V 792 H 0 Z"
         transform="matrix(1,0,0,-1,-125.87,426.10322)"
         id="path104740" />
    </clipPath>
    <clipPath
       clipPathUnits="userSpaceOnUse"
       id="clipPath104741">
      <path
         d="M 0,0 H 612 V 792 H 0 Z"
         transform="matrix(1,0,0,-1,-135.83,412.35483)"
         id="path104741" />
    </clipPath>
    <clipPath
       clipPathUnits="userSpaceOnUse"
       id="clipPath104742">
      <path
         d="M 0,0 H 612 V 792 H 0 Z"
         transform="matrix(1,0,0,-1,-153.2825,412.35483)"
         id="path104742" />
    </clipPath>
    <clipPath
       clipPathUnits="userSpaceOnUse"
       id="clipPath104743">
      <path
         d="M 0,0 H 612 V 792 H 0 Z"
         transform="matrix(1,0,0,-1,-125.87,398.60645)"
         id="path104743" />
    </clipPath>
    <clipPath
       clipPathUnits="userSpaceOnUse"
       id="clipPath104744">
      <path
         d="M 0,0 H 612 V 792 H 0 Z"
         transform="matrix(1,0,0,-1,-125.87,384.85806)"
         id="path104744" />
    </clipPath>
    <clipPath
       clipPathUnits="userSpaceOnUse"
       id="clipPath104745">
      <path
         d="M 0,0 H 612 V 792 H 0 Z"
         transform="matrix(1,0,0,-1,-125.87,348.07714)"
         id="path104745" />
    </clipPath>
    <clipPath
       clipPathUnits="userSpaceOnUse"
       id="clipPath104746">
      <path
         d="M 0,0 H 612 V 792 H 0 Z"
         transform="matrix(1,0,0,-1,-125.87,327.95268)"
         id="path104746" />
    </clipPath>
    <clipPath
       clipPathUnits="userSpaceOnUse"
       id="clipPath104747">
      <path
         d="M 0,0 H 612 V 792 H 0 Z"
         transform="matrix(1,0,0,-1,-125.87,314.2033)"
         id="path104747" />
    </clipPath>
    <clipPath
       clipPathUnits="userSpaceOnUse"
       id="clipPath104748">
      <path
         d="M 0,0 H 612 V 792 H 0 Z"
         transform="matrix(1,0,0,-1,-125.87,300.45491)"
         id="path104748" />
    </clipPath>
    <clipPath
       clipPathUnits="userSpaceOnUse"
       id="clipPath104749">
      <path
         d="M 0,0 H 612 V 792 H 0 Z"
         transform="matrix(1,0,0,-1,-290.93751,300.45491)"
         id="path104749" />
    </clipPath>
    <clipPath
       clipPathUnits="userSpaceOnUse"
       id="clipPath104750">
      <path
         d="M 0,0 H 612 V 792 H 0 Z"
         transform="matrix(1,0,0,-1,-296.45001,298.96)"
         id="path104750" />
    </clipPath>
    <clipPath
       clipPathUnits="userSpaceOnUse"
       id="clipPath104751">
      <path
         d="M 0,0 H 612 V 792 H 0 Z"
         transform="matrix(1,0,0,-1,-302.93001,300.45431)"
         id="path104751" />
    </clipPath>
    <clipPath
       clipPathUnits="userSpaceOnUse"
       id="clipPath104752">
      <path
         d="M 0,0 H 612 V 792 H 0 Z"
         transform="matrix(1,0,0,-1,-125.87,286.70592)"
         id="path104752" />
    </clipPath>
    <clipPath
       clipPathUnits="userSpaceOnUse"
       id="clipPath104753">
      <path
         d="M 0,0 H 612 V 792 H 0 Z"
         transform="matrix(1,0,0,-1,-125.87,272.95753)"
         id="path104753" />
    </clipPath>
    <clipPath
       clipPathUnits="userSpaceOnUse"
       id="clipPath104754">
      <path
         d="M 0,0 H 612 V 792 H 0 Z"
         transform="matrix(1,0,0,-1,-125.87,243.0508)"
         id="path104754" />
    </clipPath>
    <clipPath
       clipPathUnits="userSpaceOnUse"
       id="clipPath104755">
      <path
         d="M 0,0 H 612 V 792 H 0 Z"
         transform="matrix(1,0,0,-1,-268.95501,220.01827)"
         id="path104755" />
    </clipPath>
    <clipPath
       clipPathUnits="userSpaceOnUse"
       id="clipPath104756">
      <path
         d="M 0,0 H 612 V 792 H 0 Z"
         transform="matrix(1,0,0,-1,-274.38501,218.52361)"
         id="path104756" />
    </clipPath>
    <clipPath
       clipPathUnits="userSpaceOnUse"
       id="clipPath104757">
      <path
         d="M 0,0 H 612 V 792 H 0 Z"
         transform="matrix(1,0,0,-1,-278.74251,220.018)"
         id="path104757" />
    </clipPath>
    <clipPath
       clipPathUnits="userSpaceOnUse"
       id="clipPath104758">
      <path
         d="M 0,0 H 612 V 792 H 0 Z"
         transform="matrix(1,0,0,-1,-284.24751,218.52361)"
         id="path104758" />
    </clipPath>
    <clipPath
       clipPathUnits="userSpaceOnUse"
       id="clipPath104759">
      <path
         d="M 0,0 H 612 V 792 H 0 Z"
         transform="matrix(1,0,0,-1,-291.37251,220.018)"
         id="path104759" />
    </clipPath>
    <clipPath
       clipPathUnits="userSpaceOnUse"
       id="clipPath104760">
      <path
         d="M 0,0 H 612 V 792 H 0 Z"
         transform="matrix(1,0,0,-1,-301.91001,220.018)"
         id="path104760" />
    </clipPath>
    <clipPath
       clipPathUnits="userSpaceOnUse"
       id="clipPath104761">
      <path
         d="M 0,0 H 612 V 792 H 0 Z"
         transform="matrix(1,0,0,-1,-307.34001,218.52361)"
         id="path104761" />
    </clipPath>
    <clipPath
       clipPathUnits="userSpaceOnUse"
       id="clipPath104762">
      <path
         d="M 0,0 H 612 V 792 H 0 Z"
         transform="matrix(1,0,0,-1,-311.46501,220.018)"
         id="path104762" />
    </clipPath>
    <clipPath
       clipPathUnits="userSpaceOnUse"
       id="clipPath104763">
      <path
         d="M 0,0 H 612 V 792 H 0 Z"
         transform="matrix(1,0,0,-1,-316.97751,218.52361)"
         id="path104763" />
    </clipPath>
    <clipPath
       clipPathUnits="userSpaceOnUse"
       id="clipPath104764">
      <path
         d="M 0,0 H 612 V 792 H 0 Z"
         transform="matrix(1,0,0,-1,-323.87001,220.018)"
         id="path104764" />
    </clipPath>
    <clipPath
       clipPathUnits="userSpaceOnUse"
       id="clipPath104765">
      <path
         d="M 0,0 H 612 V 792 H 0 Z"
         transform="matrix(1,0,0,-1,-336.59001,220.018)"
         id="path104765" />
    </clipPath>
    <clipPath
       clipPathUnits="userSpaceOnUse"
       id="clipPath104766">
      <path
         d="M 0,0 H 612 V 792 H 0 Z"
         transform="matrix(1,0,0,-1,-456.35001,220.018)"
         id="path104766" />
    </clipPath>
    <clipPath
       clipPathUnits="userSpaceOnUse"
       id="clipPath104767">
      <path
         d="M 0,0 H 612 V 792 H 0 Z"
         transform="matrix(1,0,0,-1,-465.20751,220.018)"
         id="path104767" />
    </clipPath>
    <clipPath
       clipPathUnits="userSpaceOnUse"
       id="clipPath104768">
      <path
         d="M 0,0 H 612 V 792 H 0 Z"
         transform="matrix(1,0,0,-1,-467.94501,220.018)"
         id="path104768" />
    </clipPath>
    <clipPath
       clipPathUnits="userSpaceOnUse"
       id="clipPath104769">
      <path
         d="M 0,0 H 612 V 792 H 0 Z"
         transform="matrix(1,0,0,-1,-472.93251,220.018)"
         id="path104769" />
    </clipPath>
    <clipPath
       clipPathUnits="userSpaceOnUse"
       id="clipPath104770">
      <path
         d="M 0,0 H 612 V 792 H 0 Z"
         transform="matrix(1,0,0,-1,-475.67001,220.018)"
         id="path104770" />
    </clipPath>
    <clipPath
       clipPathUnits="userSpaceOnUse"
       id="clipPath104771">
      <path
         d="M 0,0 H 612 V 792 H 0 Z"
         transform="matrix(1,0,0,-1,-125.87,190.11228)"
         id="path104771" />
    </clipPath>
    <clipPath
       clipPathUnits="userSpaceOnUse"
       id="clipPath104772">
      <path
         d="M 0,0 H 612 V 792 H 0 Z"
         transform="matrix(1,0,0,-1,-255.80751,167.07973)"
         id="path104772" />
    </clipPath>
    <clipPath
       clipPathUnits="userSpaceOnUse"
       id="clipPath104773">
      <path
         d="M 0,0 H 612 V 792 H 0 Z"
         transform="matrix(1,0,0,-1,-261.23751,165.5851)"
         id="path104773" />
    </clipPath>
    <clipPath
       clipPathUnits="userSpaceOnUse"
       id="clipPath104774">
      <path
         d="M 0,0 H 612 V 792 H 0 Z"
         transform="matrix(1,0,0,-1,-265.59501,167.07951)"
         id="path104774" />
    </clipPath>
    <clipPath
       clipPathUnits="userSpaceOnUse"
       id="clipPath104775">
      <path
         d="M 0,0 H 612 V 792 H 0 Z"
         transform="matrix(1,0,0,-1,-272.09751,171.19401)"
         id="path104775" />
    </clipPath>
    <clipPath
       clipPathUnits="userSpaceOnUse"
       id="clipPath104776">
      <path
         d="M 0,0 H 612 V 792 H 0 Z"
         transform="matrix(1,0,0,-1,-271.10001,164.39943)"
         id="path104776" />
    </clipPath>
    <clipPath
       clipPathUnits="userSpaceOnUse"
       id="clipPath104777">
      <path
         d="M 0,0 H 612 V 792 H 0 Z"
         transform="matrix(1,0,0,-1,-278.30001,167.07951)"
         id="path104777" />
    </clipPath>
    <clipPath
       clipPathUnits="userSpaceOnUse"
       id="clipPath104778">
      <path
         d="M 0,0 H 612 V 792 H 0 Z"
         transform="matrix(1,0,0,-1,-289.43001,167.07951)"
         id="path104778" />
    </clipPath>
    <clipPath
       clipPathUnits="userSpaceOnUse"
       id="clipPath104779">
      <path
         d="M 0,0 H 612 V 792 H 0 Z"
         transform="matrix(1,0,0,-1,-294.41751,165.5851)"
         id="path104779" />
    </clipPath>
    <clipPath
       clipPathUnits="userSpaceOnUse"
       id="clipPath104780">
      <path
         d="M 0,0 H 612 V 792 H 0 Z"
         transform="matrix(1,0,0,-1,-301.54251,167.07951)"
         id="path104780" />
    </clipPath>
    <clipPath
       clipPathUnits="userSpaceOnUse"
       id="clipPath104781">
      <path
         d="M 0,0 H 612 V 792 H 0 Z"
         transform="matrix(1,0,0,-1,-312.08001,167.07951)"
         id="path104781" />
    </clipPath>
    <clipPath
       clipPathUnits="userSpaceOnUse"
       id="clipPath104782">
      <path
         d="M 0,0 H 612 V 792 H 0 Z"
         transform="matrix(1,0,0,-1,-317.51001,165.5851)"
         id="path104782" />
    </clipPath>
    <clipPath
       clipPathUnits="userSpaceOnUse"
       id="clipPath104783">
      <path
         d="M 0,0 H 612 V 792 H 0 Z"
         transform="matrix(1,0,0,-1,-321.63501,167.07951)"
         id="path104783" />
    </clipPath>
    <clipPath
       clipPathUnits="userSpaceOnUse"
       id="clipPath104784">
      <path
         d="M 0,0 H 612 V 792 H 0 Z"
         transform="matrix(1,0,0,-1,-328.13751,171.19401)"
         id="path104784" />
    </clipPath>
    <clipPath
       clipPathUnits="userSpaceOnUse"
       id="clipPath104785">
      <path
         d="M 0,0 H 612 V 792 H 0 Z"
         transform="matrix(1,0,0,-1,-327.14751,164.39943)"
         id="path104785" />
    </clipPath>
    <clipPath
       clipPathUnits="userSpaceOnUse"
       id="clipPath104786">
      <path
         d="M 0,0 H 612 V 792 H 0 Z"
         transform="matrix(1,0,0,-1,-334.34001,167.07951)"
         id="path104786" />
    </clipPath>
    <clipPath
       clipPathUnits="userSpaceOnUse"
       id="clipPath104787">
      <path
         d="M 0,0 H 612 V 792 H 0 Z"
         transform="matrix(1,0,0,-1,-345.47001,167.07951)"
         id="path104787" />
    </clipPath>
    <clipPath
       clipPathUnits="userSpaceOnUse"
       id="clipPath104788">
      <path
         d="M 0,0 H 612 V 792 H 0 Z"
         transform="matrix(1,0,0,-1,-350.46501,165.5851)"
         id="path104788" />
    </clipPath>
    <clipPath
       clipPathUnits="userSpaceOnUse"
       id="clipPath104789">
      <path
         d="M 0,0 H 612 V 792 H 0 Z"
         transform="matrix(1,0,0,-1,-456.35001,167.07951)"
         id="path104789" />
    </clipPath>
    <clipPath
       clipPathUnits="userSpaceOnUse"
       id="clipPath104790">
      <path
         d="M 0,0 H 612 V 792 H 0 Z"
         transform="matrix(1,0,0,-1,-465.20751,167.07951)"
         id="path104790" />
    </clipPath>
    <clipPath
       clipPathUnits="userSpaceOnUse"
       id="clipPath104791">
      <path
         d="M 0,0 H 612 V 792 H 0 Z"
         transform="matrix(1,0,0,-1,-467.94501,167.07951)"
         id="path104791" />
    </clipPath>
    <clipPath
       clipPathUnits="userSpaceOnUse"
       id="clipPath104792">
      <path
         d="M 0,0 H 612 V 792 H 0 Z"
         transform="matrix(1,0,0,-1,-472.93251,167.07951)"
         id="path104792" />
    </clipPath>
    <clipPath
       clipPathUnits="userSpaceOnUse"
       id="clipPath104793">
      <path
         d="M 0,0 H 612 V 792 H 0 Z"
         transform="matrix(1,0,0,-1,-475.67001,167.07951)"
         id="path104793" />
    </clipPath>
    <clipPath
       clipPathUnits="userSpaceOnUse"
       id="clipPath104794">
      <path
         d="M 0,0 H 612 V 792 H 0 Z"
         transform="matrix(1,0,0,-1,-125.87,137.17278)"
         id="path104794" />
    </clipPath>
    <clipPath
       clipPathUnits="userSpaceOnUse"
       id="clipPath104795">
      <path
         d="M 0,0 H 612 V 792 H 0 Z"
         transform="matrix(1,0,0,-1,-257.09751,110.64336)"
         id="path104795" />
    </clipPath>
    <clipPath
       clipPathUnits="userSpaceOnUse"
       id="clipPath104796">
      <path
         d="M 0,0 H 612 V 792 H 0 Z"
         transform="matrix(1,0,0,-1,-262.59501,109.14861)"
         id="path104796" />
    </clipPath>
    <clipPath
       clipPathUnits="userSpaceOnUse"
       id="clipPath104797">
      <path
         d="M 0,0 H 612 V 792 H 0 Z"
         transform="matrix(1,0,0,-1,-269.16501,110.643)"
         id="path104797" />
    </clipPath>
    <clipPath
       clipPathUnits="userSpaceOnUse"
       id="clipPath104798">
      <path
         d="M 0,0 H 612 V 792 H 0 Z"
         transform="matrix(1,0,0,-1,-280.34001,117.62679)"
         id="path104798" />
    </clipPath>
    <clipPath
       clipPathUnits="userSpaceOnUse"
       id="clipPath104799">
      <path
         d="M 0,0 H 612 V 792 H 0 Z"
         transform="translate(0.0025)"
         id="path104799" />
    </clipPath>
    <clipPath
       clipPathUnits="userSpaceOnUse"
       id="clipPath104800">
      <path
         d="M 0,0 H 612 V 792 H 0 Z"
         transform="matrix(1,0,0,-1,-280.34001,103.5696)"
         id="path104800" />
    </clipPath>
    <clipPath
       clipPathUnits="userSpaceOnUse"
       id="clipPath104801">
      <path
         d="M 0,0 H 612 V 792 H 0 Z"
         transform="matrix(1,0,0,-1,-286.52001,110.64306)"
         id="path104801" />
    </clipPath>
    <clipPath
       clipPathUnits="userSpaceOnUse"
       id="clipPath104802">
      <path
         d="M 0,0 H 612 V 792 H 0 Z"
         transform="matrix(1,0,0,-1,-293.02251,114.75771)"
         id="path104802" />
    </clipPath>
    <clipPath
       clipPathUnits="userSpaceOnUse"
       id="clipPath104803">
      <path
         d="M 0,0 H 612 V 792 H 0 Z"
         transform="matrix(1,0,0,-1,-292.03251,107.96313)"
         id="path104803" />
    </clipPath>
    <clipPath
       clipPathUnits="userSpaceOnUse"
       id="clipPath104804">
      <path
         d="M 0,0 H 612 V 792 H 0 Z"
         transform="matrix(1,0,0,-1,-299.78001,110.643)"
         id="path104804" />
    </clipPath>
    <clipPath
       clipPathUnits="userSpaceOnUse"
       id="clipPath104805">
      <path
         d="M 0,0 H 612 V 792 H 0 Z"
         transform="matrix(1,0,0,-1,-310.37001,110.643)"
         id="path104805" />
    </clipPath>
    <clipPath
       clipPathUnits="userSpaceOnUse"
       id="clipPath104806">
      <path
         d="M 0,0 H 612 V 792 H 0 Z"
         transform="matrix(1,0,0,-1,-315.86751,109.14861)"
         id="path104806" />
    </clipPath>
    <clipPath
       clipPathUnits="userSpaceOnUse"
       id="clipPath104807">
      <path
         d="M 0,0 H 612 V 792 H 0 Z"
         transform="matrix(1,0,0,-1,-322.20501,110.643)"
         id="path104807" />
    </clipPath>
    <clipPath
       clipPathUnits="userSpaceOnUse"
       id="clipPath104808">
      <path
         d="M 0,0 H 612 V 792 H 0 Z"
         transform="matrix(1,0,0,-1,-333.38751,117.62679)"
         id="path104808" />
    </clipPath>
    <clipPath
       clipPathUnits="userSpaceOnUse"
       id="clipPath104809">
      <path
         d="M 0,0 H 612 V 792 H 0 Z"
         transform="translate(0.0025)"
         id="path104809" />
    </clipPath>
    <clipPath
       clipPathUnits="userSpaceOnUse"
       id="clipPath104810">
      <path
         d="M 0,0 H 612 V 792 H 0 Z"
         transform="matrix(1,0,0,-1,-333.38751,103.5696)"
         id="path104810" />
    </clipPath>
    <clipPath
       clipPathUnits="userSpaceOnUse"
       id="clipPath104811">
      <path
         d="M 0,0 H 612 V 792 H 0 Z"
         transform="matrix(1,0,0,-1,-339.56001,110.64306)"
         id="path104811" />
    </clipPath>
    <clipPath
       clipPathUnits="userSpaceOnUse"
       id="clipPath104812">
      <path
         d="M 0,0 H 612 V 792 H 0 Z"
         transform="matrix(1,0,0,-1,-346.07001,114.75771)"
         id="path104812" />
    </clipPath>
    <clipPath
       clipPathUnits="userSpaceOnUse"
       id="clipPath104813">
      <path
         d="M 0,0 H 612 V 792 H 0 Z"
         transform="matrix(1,0,0,-1,-345.07251,107.96313)"
         id="path104813" />
    </clipPath>
    <clipPath
       clipPathUnits="userSpaceOnUse"
       id="clipPath104814">
      <path
         d="M 0,0 H 612 V 792 H 0 Z"
         transform="matrix(1,0,0,-1,-350.05251,110.643)"
         id="path104814" />
    </clipPath>
    <clipPath
       clipPathUnits="userSpaceOnUse"
       id="clipPath104815">
      <path
         d="M 0,0 H 612 V 792 H 0 Z"
         transform="matrix(1,0,0,-1,-456.35001,110.643)"
         id="path104815" />
    </clipPath>
    <clipPath
       clipPathUnits="userSpaceOnUse"
       id="clipPath104816">
      <path
         d="M 0,0 H 612 V 792 H 0 Z"
         transform="matrix(1,0,0,-1,-465.20751,110.643)"
         id="path104816" />
    </clipPath>
    <clipPath
       clipPathUnits="userSpaceOnUse"
       id="clipPath104817">
      <path
         d="M 0,0 H 612 V 792 H 0 Z"
         transform="matrix(1,0,0,-1,-467.94501,110.643)"
         id="path104817" />
    </clipPath>
    <clipPath
       clipPathUnits="userSpaceOnUse"
       id="clipPath104818">
      <path
         d="M 0,0 H 612 V 792 H 0 Z"
         transform="matrix(1,0,0,-1,-472.93251,110.643)"
         id="path104818" />
    </clipPath>
    <clipPath
       clipPathUnits="userSpaceOnUse"
       id="clipPath104819">
      <path
         d="M 0,0 H 612 V 792 H 0 Z"
         transform="matrix(1,0,0,-1,-475.67001,110.643)"
         id="path104819" />
    </clipPath>
    <clipPath
       clipPathUnits="userSpaceOnUse"
       id="clipPath104821">
      <path
         d="M 0,0 H 612 V 792 H 0 Z"
         transform="matrix(0.08713693,0.00414938,-0.00414938,-0.09543568,-39.894659,67.347873)"
         id="path104821" />
    </clipPath>
    <clipPath
       clipPathUnits="userSpaceOnUse"
       id="clipPath104822">
      <path
         d="M 0,0 H 612 V 792 H 0 Z"
         transform="matrix(0.08713693,0.00414938,-0.00414938,-0.09543568,-38.587605,67.410114)"
         id="path104822" />
    </clipPath>
    <clipPath
       clipPathUnits="userSpaceOnUse"
       id="clipPath104823">
      <path
         d="M 0,0 H 612 V 792 H 0 Z"
         transform="matrix(0.08714597,0.0043573,-0.0043573,-0.10021787,-37.135731,70.803215)"
         id="path104823" />
    </clipPath>
    <clipPath
       clipPathUnits="userSpaceOnUse"
       id="clipPath1">
      <path
         d="M -475.67252,110.64298 H 136.3275 v -791.99999 h -612.00002 z"
         id="path1"
         style="stroke-width:0.999998" />
    </clipPath>
    <clipPath
       clipPathUnits="userSpaceOnUse"
       id="clipPath2">
      <path
         d="M -472.93502,110.64298 H 139.065 v -791.99999 h -612.00002 z"
         id="path2"
         style="stroke-width:0.999998" />
    </clipPath>
    <clipPath
       clipPathUnits="userSpaceOnUse"
       id="clipPath3">
      <path
         d="M -467.94751,110.64298 H 144.0525 v -791.99999 h -612.00001 z"
         id="path3"
         style="stroke-width:0.999998" />
    </clipPath>
    <clipPath
       clipPathUnits="userSpaceOnUse"
       id="clipPath4">
      <path
         d="M -465.21001,110.64298 H 146.79001 V -681.35701 H -465.21001 Z"
         id="path4"
         style="stroke-width:0.999998" />
    </clipPath>
    <clipPath
       clipPathUnits="userSpaceOnUse"
       id="clipPath5">
      <path
         d="M -456.35251,110.64298 H 155.64751 V -681.35701 H -456.35251 Z"
         id="path5"
         style="stroke-width:0.999998" />
    </clipPath>
    <clipPath
       clipPathUnits="userSpaceOnUse"
       id="clipPath6">
      <path
         d="M -350.05502,110.64298 H 261.945 v -791.99999 h -612.00002 z"
         id="path6"
         style="stroke-width:0.999998" />
    </clipPath>
    <clipPath
       clipPathUnits="userSpaceOnUse"
       id="clipPath7">
      <path
         d="M -345.075,107.9631 H 266.92502 V -684.03688 H -345.075 Z"
         id="path7"
         style="stroke-width:0.999998" />
    </clipPath>
    <clipPath
       clipPathUnits="userSpaceOnUse"
       id="clipPath8">
      <path
         d="M -346.07251,114.75769 H 265.9275 v -791.99998 h -612.00001 z"
         id="path8"
         style="stroke-width:0.999998" />
    </clipPath>
    <clipPath
       clipPathUnits="userSpaceOnUse"
       id="clipPath9">
      <path
         d="M -339.56252,110.64304 H 272.4375 v -791.99999 h -612.00002 z"
         id="path9"
         style="stroke-width:0.999998" />
    </clipPath>
    <clipPath
       clipPathUnits="userSpaceOnUse"
       id="clipPath10">
      <path
         d="M -333.39002,103.56957 H 278.60999 V -688.43041 H -333.39002 Z"
         id="path10"
         style="stroke-width:0.999998" />
    </clipPath>
    <clipPath
       clipPathUnits="userSpaceOnUse"
       id="clipPath11">
      <path
         d="M 3.1889765e-7,2.1850395e-5 H 612.00002 V 792.00001 H 3.1889765e-7 Z"
         id="path11"
         style="stroke-width:0.999998" />
    </clipPath>
    <clipPath
       clipPathUnits="userSpaceOnUse"
       id="clipPath12">
      <path
         d="M -333.39002,117.62675 H 278.60999 V -674.37323 H -333.39002 Z"
         id="path12"
         style="stroke-width:0.999998" />
    </clipPath>
    <clipPath
       clipPathUnits="userSpaceOnUse"
       id="clipPath13">
      <path
         d="M -322.20752,110.64298 H 289.7925 v -791.99999 h -612.00002 z"
         id="path13"
         style="stroke-width:0.999998" />
    </clipPath>
    <clipPath
       clipPathUnits="userSpaceOnUse"
       id="clipPath14">
      <path
         d="M -315.87001,109.14858 H 296.13 V -682.8514 h -612.00001 z"
         id="path14"
         style="stroke-width:0.999998" />
    </clipPath>
    <clipPath
       clipPathUnits="userSpaceOnUse"
       id="clipPath15">
      <path
         d="M -310.3725,110.64298 H 301.62752 V -681.35701 H -310.3725 Z"
         id="path15"
         style="stroke-width:0.999998" />
    </clipPath>
    <clipPath
       clipPathUnits="userSpaceOnUse"
       id="clipPath16">
      <path
         d="M -299.78252,110.64298 H 312.2175 v -791.99999 h -612.00002 z"
         id="path16"
         style="stroke-width:0.999998" />
    </clipPath>
    <clipPath
       clipPathUnits="userSpaceOnUse"
       id="clipPath17">
      <path
         d="M -292.03501,107.9631 H 319.96501 V -684.03688 H -292.03501 Z"
         id="path17"
         style="stroke-width:0.999998" />
    </clipPath>
    <clipPath
       clipPathUnits="userSpaceOnUse"
       id="clipPath18">
      <path
         d="M -293.02501,114.75769 H 318.97501 V -677.24229 H -293.02501 Z"
         id="path18"
         style="stroke-width:0.999998" />
    </clipPath>
    <clipPath
       clipPathUnits="userSpaceOnUse"
       id="clipPath19">
      <path
         d="M -286.52251,110.64304 H 325.47751 V -681.35695 H -286.52251 Z"
         id="path19"
         style="stroke-width:0.999998" />
    </clipPath>
    <clipPath
       clipPathUnits="userSpaceOnUse"
       id="clipPath20">
      <path
         d="M -280.34251,103.56957 H 331.65751 V -688.43041 H -280.34251 Z"
         id="path20"
         style="stroke-width:0.999998" />
    </clipPath>
    <clipPath
       clipPathUnits="userSpaceOnUse"
       id="clipPath21">
      <path
         d="M 3.1889765e-7,2.1850395e-5 H 612.00002 V 792.00001 H 3.1889765e-7 Z"
         id="path21"
         style="stroke-width:0.999998" />
    </clipPath>
    <clipPath
       clipPathUnits="userSpaceOnUse"
       id="clipPath22">
      <path
         d="M -280.34251,117.62675 H 331.65751 V -674.37323 H -280.34251 Z"
         id="path22"
         style="stroke-width:0.999998" />
    </clipPath>
    <clipPath
       clipPathUnits="userSpaceOnUse"
       id="clipPath23">
      <path
         d="M -269.16751,110.64298 H 342.83251 V -681.35701 H -269.16751 Z"
         id="path23"
         style="stroke-width:0.999998" />
    </clipPath>
    <clipPath
       clipPathUnits="userSpaceOnUse"
       id="clipPath24">
      <path
         d="M -262.59751,109.14858 H 349.40251 V -682.8514 h -612.00002 z"
         id="path24"
         style="stroke-width:0.999998" />
    </clipPath>
    <clipPath
       clipPathUnits="userSpaceOnUse"
       id="clipPath25">
      <path
         d="M -257.10001,110.64335 H 354.90001 V -681.35664 H -257.10001 Z"
         id="path25"
         style="stroke-width:0.999998" />
    </clipPath>
    <clipPath
       clipPathUnits="userSpaceOnUse"
       id="clipPath26">
      <path
         d="M -125.8725,137.17274 H 486.12751 V -654.82725 H -125.8725 Z"
         id="path26"
         style="stroke-width:0.999998" />
    </clipPath>
    <clipPath
       clipPathUnits="userSpaceOnUse"
       id="clipPath27">
      <path
         d="M -475.67252,167.07947 H 136.3275 v -791.99998 h -612.00002 z"
         id="path27"
         style="stroke-width:0.999998" />
    </clipPath>
    <clipPath
       clipPathUnits="userSpaceOnUse"
       id="clipPath28">
      <path
         d="M -472.93502,167.07947 H 139.065 v -791.99998 h -612.00002 z"
         id="path28"
         style="stroke-width:0.999998" />
    </clipPath>
    <clipPath
       clipPathUnits="userSpaceOnUse"
       id="clipPath29">
      <path
         d="M -467.94751,167.07947 H 144.0525 v -791.99998 h -612.00001 z"
         id="path29"
         style="stroke-width:0.999998" />
    </clipPath>
    <clipPath
       clipPathUnits="userSpaceOnUse"
       id="clipPath30">
      <path
         d="M -465.21001,167.07947 H 146.79001 V -624.92051 H -465.21001 Z"
         id="path30"
         style="stroke-width:0.999998" />
    </clipPath>
    <clipPath
       clipPathUnits="userSpaceOnUse"
       id="clipPath31">
      <path
         d="M -456.35251,167.07947 H 155.64751 V -624.92051 H -456.35251 Z"
         id="path31"
         style="stroke-width:0.999998" />
    </clipPath>
    <clipPath
       clipPathUnits="userSpaceOnUse"
       id="clipPath32">
      <path
         d="M -350.46752,165.58508 H 261.5325 v -791.99999 h -612.00002 z"
         id="path32"
         style="stroke-width:0.999998" />
    </clipPath>
    <clipPath
       clipPathUnits="userSpaceOnUse"
       id="clipPath33">
      <path
         d="M -345.4725,167.07947 H 266.52751 V -624.92051 H -345.4725 Z"
         id="path33"
         style="stroke-width:0.999998" />
    </clipPath>
    <clipPath
       clipPathUnits="userSpaceOnUse"
       id="clipPath34">
      <path
         d="M -334.34252,167.07947 H 277.6575 v -791.99998 h -612.00002 z"
         id="path34"
         style="stroke-width:0.999998" />
    </clipPath>
    <clipPath
       clipPathUnits="userSpaceOnUse"
       id="clipPath35">
      <path
         d="M -327.15001,164.3994 H 284.85001 V -627.60059 H -327.15001 Z"
         id="path35"
         style="stroke-width:0.999998" />
    </clipPath>
    <clipPath
       clipPathUnits="userSpaceOnUse"
       id="clipPath36">
      <path
         d="M -328.14001,171.19399 H 283.86001 V -620.806 h -612.00002 z"
         id="path36"
         style="stroke-width:0.999998" />
    </clipPath>
    <clipPath
       clipPathUnits="userSpaceOnUse"
       id="clipPath37">
      <path
         d="M -321.63753,167.07947 H 290.36249 V -624.92051 H -321.63753 Z"
         id="path37"
         style="stroke-width:0.999998" />
    </clipPath>
    <clipPath
       clipPathUnits="userSpaceOnUse"
       id="clipPath38">
      <path
         d="M -317.51252,165.58508 H 294.4875 v -791.99999 h -612.00002 z"
         id="path38"
         style="stroke-width:0.999998" />
    </clipPath>
    <clipPath
       clipPathUnits="userSpaceOnUse"
       id="clipPath39">
      <path
         d="M -312.0825,167.07947 H 299.91752 V -624.92051 H -312.0825 Z"
         id="path39"
         style="stroke-width:0.999998" />
    </clipPath>
    <clipPath
       clipPathUnits="userSpaceOnUse"
       id="clipPath40">
      <path
         d="M -301.54502,167.07947 H 310.455 v -791.99998 h -612.00002 z"
         id="path40"
         style="stroke-width:0.999998" />
    </clipPath>
    <clipPath
       clipPathUnits="userSpaceOnUse"
       id="clipPath41">
      <path
         d="M -294.42002,165.58508 H 317.57999 V -626.41491 H -294.42002 Z"
         id="path41"
         style="stroke-width:0.999998" />
    </clipPath>
    <clipPath
       clipPathUnits="userSpaceOnUse"
       id="clipPath42">
      <path
         d="M -289.43251,167.07947 H 322.56751 V -624.92051 H -289.43251 Z"
         id="path42"
         style="stroke-width:0.999998" />
    </clipPath>
    <clipPath
       clipPathUnits="userSpaceOnUse"
       id="clipPath43">
      <path
         d="M -278.30251,167.07947 H 333.69751 V -624.92051 H -278.30251 Z"
         id="path43"
         style="stroke-width:0.999998" />
    </clipPath>
    <clipPath
       clipPathUnits="userSpaceOnUse"
       id="clipPath44">
      <path
         d="M -271.10251,164.3994 H 340.89751 V -627.60059 H -271.10251 Z"
         id="path44"
         style="stroke-width:0.999998" />
    </clipPath>
    <clipPath
       clipPathUnits="userSpaceOnUse"
       id="clipPath45">
      <path
         d="M -272.10001,171.19399 H 339.90001 V -620.806 h -612.00002 z"
         id="path45"
         style="stroke-width:0.999998" />
    </clipPath>
    <clipPath
       clipPathUnits="userSpaceOnUse"
       id="clipPath46">
      <path
         d="M -265.59751,167.07947 H 346.40251 V -624.92051 H -265.59751 Z"
         id="path46"
         style="stroke-width:0.999998" />
    </clipPath>
    <clipPath
       clipPathUnits="userSpaceOnUse"
       id="clipPath47">
      <path
         d="M -261.24001,165.58508 H 350.76001 V -626.41491 H -261.24001 Z"
         id="path47"
         style="stroke-width:0.999998" />
    </clipPath>
    <clipPath
       clipPathUnits="userSpaceOnUse"
       id="clipPath48">
      <path
         d="M -255.81001,167.0797 H 356.19001 V -624.92029 H -255.81001 Z"
         id="path48"
         style="stroke-width:0.999998" />
    </clipPath>
    <clipPath
       clipPathUnits="userSpaceOnUse"
       id="clipPath49">
      <path
         d="M -125.8725,190.11225 H 486.12751 V -601.88774 H -125.8725 Z"
         id="path49"
         style="stroke-width:0.999998" />
    </clipPath>
    <clipPath
       clipPathUnits="userSpaceOnUse"
       id="clipPath50">
      <path
         d="M -475.67252,220.01799 H 136.3275 V -571.982 h -612.00002 z"
         id="path50"
         style="stroke-width:0.999998" />
    </clipPath>
    <clipPath
       clipPathUnits="userSpaceOnUse"
       id="clipPath51">
      <path
         d="M -472.93502,220.01799 H 139.065 V -571.982 h -612.00002 z"
         id="path51"
         style="stroke-width:0.999998" />
    </clipPath>
    <clipPath
       clipPathUnits="userSpaceOnUse"
       id="clipPath52">
      <path
         d="M -467.94751,220.01799 H 144.0525 V -571.982 h -612.00001 z"
         id="path52"
         style="stroke-width:0.999998" />
    </clipPath>
    <clipPath
       clipPathUnits="userSpaceOnUse"
       id="clipPath53">
      <path
         d="M -465.21001,220.01799 H 146.79001 V -571.982 h -612.00002 z"
         id="path53"
         style="stroke-width:0.999998" />
    </clipPath>
    <clipPath
       clipPathUnits="userSpaceOnUse"
       id="clipPath54">
      <path
         d="M -456.35251,220.01799 H 155.64751 V -571.982 h -612.00002 z"
         id="path54"
         style="stroke-width:0.999998" />
    </clipPath>
    <clipPath
       clipPathUnits="userSpaceOnUse"
       id="clipPath55">
      <path
         d="M -336.59252,220.01799 H 275.4075 V -571.982 h -612.00002 z"
         id="path55"
         style="stroke-width:0.999998" />
    </clipPath>
    <clipPath
       clipPathUnits="userSpaceOnUse"
       id="clipPath56">
      <path
         d="M -323.8725,220.01799 H 288.12751 V -571.982 H -323.8725 Z"
         id="path56"
         style="stroke-width:0.999998" />
    </clipPath>
    <clipPath
       clipPathUnits="userSpaceOnUse"
       id="clipPath57">
      <path
         d="M -316.98,218.52359 H 295.02001 V -573.4764 H -316.98 Z"
         id="path57"
         style="stroke-width:0.999998" />
    </clipPath>
    <clipPath
       clipPathUnits="userSpaceOnUse"
       id="clipPath58">
      <path
         d="M -311.46753,220.01799 H 300.53249 V -571.982 h -612.00002 z"
         id="path58"
         style="stroke-width:0.999998" />
    </clipPath>
    <clipPath
       clipPathUnits="userSpaceOnUse"
       id="clipPath59">
      <path
         d="M -307.34252,218.52359 H 304.6575 V -573.4764 h -612.00002 z"
         id="path59"
         style="stroke-width:0.999998" />
    </clipPath>
    <clipPath
       clipPathUnits="userSpaceOnUse"
       id="clipPath60">
      <path
         d="M -301.9125,220.01799 H 310.08752 V -571.982 H -301.9125 Z"
         id="path60"
         style="stroke-width:0.999998" />
    </clipPath>
    <clipPath
       clipPathUnits="userSpaceOnUse"
       id="clipPath61">
      <path
         d="M -291.37501,220.01799 H 320.62501 V -571.982 h -612.00002 z"
         id="path61"
         style="stroke-width:0.999998" />
    </clipPath>
    <clipPath
       clipPathUnits="userSpaceOnUse"
       id="clipPath62">
      <path
         d="M -284.25001,218.52359 H 327.75001 V -573.4764 h -612.00002 z"
         id="path62"
         style="stroke-width:0.999998" />
    </clipPath>
    <clipPath
       clipPathUnits="userSpaceOnUse"
       id="clipPath63">
      <path
         d="M -278.74501,220.01799 H 333.25501 V -571.982 h -612.00002 z"
         id="path63"
         style="stroke-width:0.999998" />
    </clipPath>
    <clipPath
       clipPathUnits="userSpaceOnUse"
       id="clipPath64">
      <path
         d="M -274.38751,218.52359 H 337.61251 V -573.4764 h -612.00002 z"
         id="path64"
         style="stroke-width:0.999998" />
    </clipPath>
    <clipPath
       clipPathUnits="userSpaceOnUse"
       id="clipPath65">
      <path
         d="M -268.95751,220.01824 H 343.04251 V -571.98175 H -268.95751 Z"
         id="path65"
         style="stroke-width:0.999998" />
    </clipPath>
    <clipPath
       clipPathUnits="userSpaceOnUse"
       id="clipPath66">
      <path
         d="M -125.8725,243.05079 H 486.12751 V -548.9492 H -125.8725 Z"
         id="path66"
         style="stroke-width:0.999998" />
    </clipPath>
    <clipPath
       clipPathUnits="userSpaceOnUse"
       id="clipPath67">
      <path
         d="M -125.8725,272.95752 H 486.12751 V -519.04247 H -125.8725 Z"
         id="path67"
         style="stroke-width:0.999998" />
    </clipPath>
    <clipPath
       clipPathUnits="userSpaceOnUse"
       id="clipPath68">
      <path
         d="M -125.8725,286.70589 H 486.12751 V -505.29409 H -125.8725 Z"
         id="path68"
         style="stroke-width:0.999998" />
    </clipPath>
    <clipPath
       clipPathUnits="userSpaceOnUse"
       id="clipPath69">
      <path
         d="M -302.93252,300.45429 H 309.0675 v -791.99998 h -612.00002 z"
         id="path69"
         style="stroke-width:0.999998" />
    </clipPath>
    <clipPath
       clipPathUnits="userSpaceOnUse"
       id="clipPath70">
      <path
         d="M -296.45252,298.95998 H 315.5475 v -791.99999 h -612.00002 z"
         id="path70"
         style="stroke-width:0.999998" />
    </clipPath>
    <clipPath
       clipPathUnits="userSpaceOnUse"
       id="clipPath71">
      <path
         d="M -290.94001,300.45489 H 321.06001 V -491.5451 h -612.00002 z"
         id="path71"
         style="stroke-width:0.999998" />
    </clipPath>
    <clipPath
       clipPathUnits="userSpaceOnUse"
       id="clipPath72">
      <path
         d="M -125.8725,300.45489 H 486.12751 V -491.5451 H -125.8725 Z"
         id="path72"
         style="stroke-width:0.999998" />
    </clipPath>
    <clipPath
       clipPathUnits="userSpaceOnUse"
       id="clipPath73">
      <path
         d="M -125.8725,314.20329 H 486.12751 V -477.7967 H -125.8725 Z"
         id="path73"
         style="stroke-width:0.999998" />
    </clipPath>
    <clipPath
       clipPathUnits="userSpaceOnUse"
       id="clipPath74">
      <path
         d="M -125.8725,327.95265 H 486.12751 V -464.04733 H -125.8725 Z"
         id="path74"
         style="stroke-width:0.999998" />
    </clipPath>
    <clipPath
       clipPathUnits="userSpaceOnUse"
       id="clipPath75">
      <path
         d="M -125.8725,348.07711 H 486.12751 V -443.92288 H -125.8725 Z"
         id="path75"
         style="stroke-width:0.999998" />
    </clipPath>
    <clipPath
       clipPathUnits="userSpaceOnUse"
       id="clipPath76">
      <path
         d="M -125.8725,384.85805 H 486.12751 V -407.14193 H -125.8725 Z"
         id="path76"
         style="stroke-width:0.999998" />
    </clipPath>
    <clipPath
       clipPathUnits="userSpaceOnUse"
       id="clipPath77">
      <path
         d="M -125.8725,398.60643 H 486.12751 V -393.39356 H -125.8725 Z"
         id="path77"
         style="stroke-width:0.999998" />
    </clipPath>
    <clipPath
       clipPathUnits="userSpaceOnUse"
       id="clipPath78">
      <path
         d="M -153.28501,412.35483 H 458.71501 V -379.64516 H -153.28501 Z"
         id="path78"
         style="stroke-width:0.999998" />
    </clipPath>
    <clipPath
       clipPathUnits="userSpaceOnUse"
       id="clipPath79">
      <path
         d="M -135.83251,412.35483 H 476.16751 V -379.64516 H -135.83251 Z"
         id="path79"
         style="stroke-width:0.999998" />
    </clipPath>
    <clipPath
       clipPathUnits="userSpaceOnUse"
       id="clipPath80">
      <path
         d="M -125.8725,426.1032 H 486.12751 V -365.89679 H -125.8725 Z"
         id="path80"
         style="stroke-width:0.999998" />
    </clipPath>
    <clipPath
       clipPathUnits="userSpaceOnUse"
       id="clipPath81">
      <path
         d="M -137.6175,439.8516 H 474.38251 V -352.14839 H -137.6175 Z"
         id="path81"
         style="stroke-width:0.999998" />
    </clipPath>
    <clipPath
       clipPathUnits="userSpaceOnUse"
       id="clipPath82">
      <path
         d="M -129.75,437.17136 H 482.25001 V -354.82863 H -129.75 Z"
         id="path82"
         style="stroke-width:0.999998" />
    </clipPath>
    <clipPath
       clipPathUnits="userSpaceOnUse"
       id="clipPath83">
      <path
         d="M -131.34001,443.46798 H 480.66001 V -348.532 h -612.00002 z"
         id="path83"
         style="stroke-width:0.999998" />
    </clipPath>
    <clipPath
       clipPathUnits="userSpaceOnUse"
       id="clipPath84">
      <path
         d="M -125.8725,439.8516 H 486.12751 V -352.14839 H -125.8725 Z"
         id="path84"
         style="stroke-width:0.999998" />
    </clipPath>
    <clipPath
       clipPathUnits="userSpaceOnUse"
       id="clipPath85">
      <path
         d="M -388.005,453.6 H 223.99501 V -338.39999 H -388.005 Z"
         id="path85"
         style="stroke-width:0.999998" />
    </clipPath>
    <clipPath
       clipPathUnits="userSpaceOnUse"
       id="clipPath86">
      <path
         d="M -383.60252,453.6 H 228.3975 v -791.99999 h -612.00002 z"
         id="path86"
         style="stroke-width:0.999998" />
    </clipPath>
    <clipPath
       clipPathUnits="userSpaceOnUse"
       id="clipPath87">
      <path
         d="M -378.95251,450.92044 H 233.04751 V -341.07955 H -378.95251 Z"
         id="path87"
         style="stroke-width:0.999998" />
    </clipPath>
    <clipPath
       clipPathUnits="userSpaceOnUse"
       id="clipPath88">
      <path
         d="M -379.55251,457.21639 H 232.4475 V -334.7836 h -612.00001 z"
         id="path88"
         style="stroke-width:0.999998" />
    </clipPath>
    <clipPath
       clipPathUnits="userSpaceOnUse"
       id="clipPath89">
      <path
         d="M -375.07502,453.60023 H 236.925 v -791.99999 h -612.00002 z"
         id="path89"
         style="stroke-width:0.999998" />
    </clipPath>
    <clipPath
       clipPathUnits="userSpaceOnUse"
       id="clipPath90">
      <path
         d="M -125.8725,453.60023 H 486.12751 V -338.39976 H -125.8725 Z"
         id="path90"
         style="stroke-width:0.999998" />
    </clipPath>
    <clipPath
       clipPathUnits="userSpaceOnUse"
       id="clipPath91">
      <path
         d="M -125.8725,467.34863 H 486.12751 V -324.65136 H -125.8725 Z"
         id="path91"
         style="stroke-width:0.999998" />
    </clipPath>
    <clipPath
       clipPathUnits="userSpaceOnUse"
       id="clipPath92">
      <path
         d="M -125.8725,481.097 H 486.12751 V -310.90299 H -125.8725 Z"
         id="path92"
         style="stroke-width:0.999998" />
    </clipPath>
    <clipPath
       clipPathUnits="userSpaceOnUse"
       id="clipPath93">
      <path
         d="M -154.7475,494.8454 H 457.25251 V -297.15459 H -154.7475 Z"
         id="path93"
         style="stroke-width:0.999998" />
    </clipPath>
    <clipPath
       clipPathUnits="userSpaceOnUse"
       id="clipPath94">
      <path
         d="M -147.62251,494.8454 H 464.37751 V -297.15459 H -147.62251 Z"
         id="path94"
         style="stroke-width:0.999998" />
    </clipPath>
    <clipPath
       clipPathUnits="userSpaceOnUse"
       id="clipPath95">
      <path
         d="M -135.83251,494.8454 H 476.16751 V -297.15459 H -135.83251 Z"
         id="path95"
         style="stroke-width:0.999998" />
    </clipPath>
    <clipPath
       clipPathUnits="userSpaceOnUse"
       id="clipPath96">
      <path
         d="M -158.19751,508.5938 H 453.80251 V -283.40618 H -158.19751 Z"
         id="path96"
         style="stroke-width:0.999998" />
    </clipPath>
    <clipPath
       clipPathUnits="userSpaceOnUse"
       id="clipPath97">
      <path
         d="M -151.0575,505.91356 H 460.94251 V -286.08643 H -151.0575 Z"
         id="path97"
         style="stroke-width:0.999998" />
    </clipPath>
    <clipPath
       clipPathUnits="userSpaceOnUse"
       id="clipPath98">
      <path
         d="M -151.65751,512.21019 H 460.34251 V -279.7898 h -612.00002 z"
         id="path98"
         style="stroke-width:0.999998" />
    </clipPath>
    <clipPath
       clipPathUnits="userSpaceOnUse"
       id="clipPath99">
      <path
         d="M -147.18001,508.59394 H 464.82001 V -283.40604 H -147.18001 Z"
         id="path99"
         style="stroke-width:0.999998" />
    </clipPath>
    <clipPath
       clipPathUnits="userSpaceOnUse"
       id="clipPath100">
      <path
         d="M -125.8725,508.59394 H 486.12751 V -283.40604 H -125.8725 Z"
         id="path100"
         style="stroke-width:0.999998" />
    </clipPath>
    <clipPath
       clipPathUnits="userSpaceOnUse"
       id="clipPath101">
      <path
         d="M -125.8725,522.34232 H 486.12751 V -269.65767 H -125.8725 Z"
         id="path101"
         style="stroke-width:0.999998" />
    </clipPath>
    <clipPath
       clipPathUnits="userSpaceOnUse"
       id="clipPath102">
      <path
         d="M -125.8725,536.0907 H 486.12751 V -255.90928 H -125.8725 Z"
         id="path102"
         style="stroke-width:0.999998" />
    </clipPath>
    <clipPath
       clipPathUnits="userSpaceOnUse"
       id="clipPath103">
      <path
         d="M -125.8725,549.8391 H 486.12751 V -242.16089 H -125.8725 Z"
         id="path103"
         style="stroke-width:0.999998" />
    </clipPath>
    <clipPath
       clipPathUnits="userSpaceOnUse"
       id="clipPath104">
      <path
         d="M -125.8725,581.72763 H 486.12751 V -210.27236 H -125.8725 Z"
         id="path104"
         style="stroke-width:0.999998" />
    </clipPath>
    <clipPath
       clipPathUnits="userSpaceOnUse"
       id="clipPath105">
      <path
         d="M -130.7325,592.1884 H 481.26751 V -199.81159 H -130.7325 Z"
         id="path105"
         style="stroke-width:0.999998" />
    </clipPath>
    <clipPath
       clipPathUnits="userSpaceOnUse"
       id="clipPath106">
      <path
         d="M -125.8725,592.1884 H 486.12751 V -199.81159 H -125.8725 Z"
         id="path106"
         style="stroke-width:0.999998" />
    </clipPath>
    <clipPath
       clipPathUnits="userSpaceOnUse"
       id="clipPath107">
      <path
         d="M -281.57251,609.7316 H 330.42751 V -182.26839 H -281.57251 Z"
         id="path107"
         style="stroke-width:0.999998" />
    </clipPath>
    <clipPath
       clipPathUnits="userSpaceOnUse"
       id="clipPath108">
      <path
         d="M 3.1889765e-7,2.1850395e-5 H 612.00002 V 792.00001 H 3.1889765e-7 Z"
         id="path108"
         style="stroke-width:0.999998" />
    </clipPath>
    <clipPath
       clipPathUnits="userSpaceOnUse"
       id="clipPath109">
      <path
         d="M 3.1889765e-7,2.1850395e-5 H 612.00002 V 792.00001 H 3.1889765e-7 Z"
         id="path109"
         style="stroke-width:0.999998" />
    </clipPath>
    <clipPath
       clipPathUnits="userSpaceOnUse"
       id="clipPath110">
      <path
         d="M -379.89752,640.8321 H 232.1025 v -791.99999 h -612.00002 z"
         id="path110"
         style="stroke-width:0.999998" />
    </clipPath>
    <clipPath
       clipPathUnits="userSpaceOnUse"
       id="clipPath111">
      <path
         d="M -374.4675,643.6818 H 237.53252 V -148.31819 H -374.4675 Z"
         id="path111"
         style="stroke-width:0.999998" />
    </clipPath>
    <clipPath
       clipPathUnits="userSpaceOnUse"
       id="clipPath112">
      <path
         d="M -196.34265,673.7321 H 415.65737 L 203.47817,-118.26789 H -408.52184 Z"
         id="path112"
         style="stroke-width:0.999998" />
    </clipPath>
    <clipPath
       clipPathUnits="userSpaceOnUse"
       id="clipPath113">
      <path
         d="M -379.89752,655.3741 H 232.1025 v -791.99999 h -612.00002 z"
         id="path113"
         style="stroke-width:0.999998" />
    </clipPath>
    <clipPath
       clipPathUnits="userSpaceOnUse"
       id="clipPath114">
      <path
         d="M -376.2675,659.1367 H 235.73252 V -132.86329 H -376.2675 Z"
         id="path114"
         style="stroke-width:0.999998" />
    </clipPath>
    <clipPath
       clipPathUnits="userSpaceOnUse"
       id="clipPath115">
      <path
         d="M -199.97795,669.0557 H 412.02206 L 199.83991,-122.94429 h -612.00002 z"
         id="path115"
         style="stroke-width:0.999998" />
    </clipPath>
    <clipPath
       clipPathUnits="userSpaceOnUse"
       id="clipPath116">
      <path
         d="M -232.24501,640.8321 H 379.75501 V -151.16789 H -232.24501 Z"
         id="path116"
         style="stroke-width:0.999998" />
    </clipPath>
    <clipPath
       clipPathUnits="userSpaceOnUse"
       id="clipPath117">
      <path
         d="M -226.81501,642.7404 H 385.18501 V -149.25959 H -226.81501 Z"
         id="path117"
         style="stroke-width:0.999998" />
    </clipPath>
    <clipPath
       clipPathUnits="userSpaceOnUse"
       id="clipPath118">
      <path
         d="M -47.250139,673.7321 H 564.74988 l -212.1792,-791.99999 h -612.00001 z"
         id="path118"
         style="stroke-width:0.999998" />
    </clipPath>
    <clipPath
       clipPathUnits="userSpaceOnUse"
       id="clipPath119">
      <path
         d="M -232.24501,654.4864 H 379.75501 V -137.51359 H -232.24501 Z"
         id="path119"
         style="stroke-width:0.999998" />
    </clipPath>
    <clipPath
       clipPathUnits="userSpaceOnUse"
       id="clipPath120">
      <path
         d="M -228.59251,659.1367 H 383.40751 V -132.86329 H -228.59251 Z"
         id="path120"
         style="stroke-width:0.999998" />
    </clipPath>
    <clipPath
       clipPathUnits="userSpaceOnUse"
       id="clipPath121">
      <path
         d="M -232.24501,669.05562 H 379.75501 V -122.94437 H -232.24501 Z"
         id="path121"
         style="stroke-width:0.999998" />
    </clipPath>
    <clipPath
       clipPathUnits="userSpaceOnUse"
       id="clipPath122">
      <path
         d="M -336.165,661.7705 H 275.83502 V -130.22948 H -336.165 Z"
         id="path122"
         style="stroke-width:0.999998" />
    </clipPath>
    <clipPath
       clipPathUnits="userSpaceOnUse"
       id="clipPath123">
      <path
         d="M -330.68251,663.7334 H 281.3175 v -791.99998 h -612.00001 z"
         id="path123"
         style="stroke-width:0.999998" />
    </clipPath>
    <clipPath
       clipPathUnits="userSpaceOnUse"
       id="clipPath124">
      <path
         d="M -263.26501,661.6642 H 348.73501 V -130.33579 H -263.26501 Z"
         id="path124"
         style="stroke-width:0.999998" />
    </clipPath>
    <clipPath
       clipPathUnits="userSpaceOnUse"
       id="clipPath125">
      <path
         d="M -257.78251,662.7119 H 354.21751 V -129.28808 H -257.78251 Z"
         id="path125"
         style="stroke-width:0.999998" />
    </clipPath>
    <clipPath
       clipPathUnits="userSpaceOnUse"
       id="clipPath126">
      <path
         d="M 3.1889765e-7,2.1850395e-5 H 612.00002 V 792.00001 H 3.1889765e-7 Z"
         id="path126"
         style="stroke-width:0.999998" />
    </clipPath>
    <clipPath
       clipPathUnits="userSpaceOnUse"
       id="clipPath128">
      <path
         d="M -125.8725,713.3669 H 486.12751 V -78.633083 H -125.8725 Z"
         id="path128"
         style="stroke-width:0.999998" />
    </clipPath>
    <clipPath
       clipPathUnits="userSpaceOnUse"
       id="clipPath129">
      <path
         d="M 3.1889765e-7,2.1850395e-5 H 612.00002 V 792.00001 H 3.1889765e-7 Z"
         id="path129"
         style="stroke-width:0.999998" />
    </clipPath>
    <clipPath
       clipPathUnits="userSpaceOnUse"
       id="clipPath130">
      <path
         d="M 3.1889765e-7,2.1850395e-5 H 612.00002 V 792.00001 H 3.1889765e-7 Z"
         id="path130"
         style="stroke-width:0.999998" />
    </clipPath>
    <clipPath
       clipPathUnits="userSpaceOnUse"
       id="clipPath131">
      <path
         d="M 3.1889765e-7,2.1850395e-5 H 612.00002 V 792.00001 H 3.1889765e-7 Z"
         id="path131"
         style="stroke-width:0.999998" />
    </clipPath>
    <clipPath
       clipPathUnits="userSpaceOnUse"
       id="clipPath132">
      <path
         d="M 3.1889765e-7,2.1850395e-5 H 612.00002 V 792.00001 H 3.1889765e-7 Z"
         id="path132"
         style="stroke-width:0.999998" />
    </clipPath>
    <clipPath
       clipPathUnits="userSpaceOnUse"
       id="clipPath133">
      <path
         d="M 3.1889765e-7,2.1850395e-5 H 612.00002 V 792.00001 H 3.1889765e-7 Z"
         id="path133"
         style="stroke-width:0.999998" />
    </clipPath>
    <clipPath
       clipPathUnits="userSpaceOnUse"
       id="clipPath134">
      <path
         d="M 3.1889765e-7,2.1850395e-5 H 612.00002 V 792.00001 H 3.1889765e-7 Z"
         id="path134"
         style="stroke-width:0.999998" />
    </clipPath>
    <clipPath
       clipPathUnits="userSpaceOnUse"
       id="clipPath135">
      <path
         d="M 3.1889765e-7,2.1850395e-5 H 612.00002 V 792.00001 H 3.1889765e-7 Z"
         id="path135"
         style="stroke-width:0.999998" />
    </clipPath>
    <clipPath
       clipPathUnits="userSpaceOnUse"
       id="clipPath136">
      <path
         d="M -56.362501,776.21427 H 555.63752 V -15.78572 H -56.362501 Z"
         id="path136"
         style="stroke-width:0.999998" />
    </clipPath>
    <clipPath
       clipPathUnits="userSpaceOnUse"
       id="clipPath137">
      <path
         d="M -56.362501,785.39981 H 555.63752 V -6.6001806 H -56.362501 Z"
         id="path137"
         style="stroke-width:0.999998" />
    </clipPath>
    <clipPath
       clipPathUnits="userSpaceOnUse"
       id="clipPath138">
      <path
         d="M 3.1889765e-7,2.1850395e-5 H 612.00002 V 792.00001 H 3.1889765e-7 Z"
         id="path138"
         style="stroke-width:0.999998" />
    </clipPath>
  </defs>
  <g
     inkscape:label="Layer 1"
     inkscape:groupmode="layer"
     id="layer1"
     transform="translate(103.88939,-28.280776)">
    <g
       id="g1">
      <path
         d="m 233.184,626.666 147.68,-0.054 m -147.68,65.695 147.68,-0.054 m -77.523,-64.645 0.054,11.826 m -0.054,3.628 0.054,11.882 m -0.054,3.656 0.054,11.854 m -0.054,3.655 0.054,11.801 m -0.054,3.656 0.054,2.741 m 8.145,-64.699 0.053,11.826 m -0.053,3.628 0.053,11.882 m -0.053,3.656 0.053,11.854 m -0.053,3.655 0.053,11.801 m -0.053,3.656 0.053,2.741"
         style="fill:none;stroke:#000000;stroke-width:0.8;stroke-linecap:butt;stroke-linejoin:round;stroke-miterlimit:10;stroke-dasharray:none;stroke-opacity:1"
         transform="matrix(0.35277776,0,0,-0.35277776,-184.13198,272.6524)"
         clip-path="url(#clipPath138)"
         id="path104835" />
      <path
         d="m 253.667,657.471 h 14.784 v -0.888 h -14.784 z m 14.354,0.457 4.462,-0.915 -4.462,-0.887"
         style="fill:#000000;fill-opacity:1;fill-rule:nonzero;stroke:none"
         transform="matrix(0.35277776,0,0,-0.35277776,-184.13198,272.6524)"
         clip-path="url(#clipPath126)"
         id="path104836" />
      <path
         d="m 4.2526703,-3.9613422 -0.703125,0.1054688 -0.1171875,0.3984375 c -0.4921875,1.8164062 -1.7109375,3.04687496 -2.15625,3.04687496 -0.1171875,0 -0.1992187,-0.0703125 -0.1992187,-0.19921875 0,-0.26953125 0.1640625,-0.67968751 0.3046875,-1.18359371 0.421875,-1.453125 0.4570312,-1.59375 0.4570312,-1.7929688 0,-0.2226562 -0.1523437,-0.375 -0.375,-0.375 -0.4570312,0 -0.98437499,0.5742188 -1.20703124,0.9492188 l 0.140625,0.082031 c 0.140625,-0.1640625 0.36328125,-0.5390625 0.59765625,-0.5390625 0.0820313,0 0.11718749,0.070312 0.11718749,0.140625 0,0.234375 -0.09375,0.4570313 -0.49218749,1.828125 -0.0820313,0.3046875 -0.22265625,0.77343751 -0.22265625,1.07812501 0,0.29296875 0.1875,0.52734375 0.4921875,0.52734375 0.86718754,0 1.75781254,-1.48828126 2.13281254,-2.10937496 l 0.023437,0.011719 c -0.3046875,0.9023438 -0.4453125,1.40625001 -0.4453125,1.74609376 0,0.234375 0.1523437,0.3515625 0.375,0.3515625 0.4570312,0 0.9375,-0.609375 1.1601562,-0.97265625 L 4.0065766,-0.97306094 c -0.3046875,0.43359375 -0.4453125,0.5859375 -0.6210938,0.5859375 -0.09375,0 -0.1054687,-0.0585938 -0.1054687,-0.12890625 0,-0.15234375 0.1523437,-0.65625001 0.1992187,-0.83203121 z m 0,0"
         style="fill:#000000;fill-opacity:1;fill-rule:nonzero;stroke:none"
         aria-label="u"
         transform="matrix(0.35277776,0,0,0.35277776,-93.19204,38.862375)"
         clip-path="url(#clipPath125)"
         id="path104837" />
      <path
         d="m 2.9759016,-2.7649016 -0.5039063,0.070312 -0.070312,0.28125 c -0.3515625,1.265625 -1.1953125,2.12109379 -1.51171874,2.12109379 -0.0820313,0 -0.12890625,-0.046875 -0.12890625,-0.12890625 0,-0.1875 0.10546875,-0.48046875 0.2109375,-0.83203124 0.28124999,-1.0078125 0.30468749,-1.1132813 0.30468749,-1.2539063 0,-0.1523437 -0.09375,-0.2578125 -0.2578125,-0.2578125 -0.31640624,0 -0.67968749,0.3984375 -0.84374999,0.65625 l 0.09375,0.058594 c 0.10546875,-0.1054688 0.2578125,-0.375 0.421875,-0.375 0.0703125,0 0.0820313,0.058594 0.0820313,0.09375 0,0.1640625 -0.0585938,0.328125 -0.33984375,1.2773437 -0.0585938,0.22265629 -0.15234375,0.55078129 -0.15234375,0.76171879 0,0.2109375 0.12890625,0.36328125 0.33984375,0.36328125 0.60937494,0 1.23046874,-1.03125 1.48828124,-1.47656254 l 0.023437,0.011719 c -0.2226563,0.63281249 -0.3164063,0.98437499 -0.3164063,1.23046874 0,0.15234375 0.1054688,0.234375 0.2578125,0.234375 0.328125,0 0.65625,-0.421875 0.8203125,-0.6796875 l -0.09375,-0.0703125 c -0.2109375,0.3046875 -0.3046875,0.41015625 -0.4335937,0.41015625 -0.058594,0 -0.082031,-0.046875 -0.082031,-0.09375 0,-0.10546875 0.1171875,-0.45703125 0.1523438,-0.5859375 z m 0,0"
         style="fill:#000000;fill-opacity:1;fill-rule:nonzero;stroke:none"
         aria-label="u"
         transform="matrix(0.35277776,0,0,0.35277776,-91.257936,39.231982)"
         clip-path="url(#clipPath124)"
         id="path104838" />
      <path
         d="m 4.2537844,-3.9623031 -0.703125,0.1054687 -0.1171875,0.3984375 c -0.4921875,1.8164063 -1.7109375,3.04687503 -2.15625,3.04687503 -0.1171875,0 -0.1992188,-0.0703125 -0.1992188,-0.19921875 0,-0.26953125 0.1640625,-0.67968748 0.3046875,-1.18359378 0.421875,-1.453125 0.4570313,-1.59375 0.4570313,-1.7929687 0,-0.2226563 -0.1523438,-0.375 -0.375,-0.375 -0.4570313,0 -0.98437502,0.5742187 -1.20703127,0.9492187 l 0.140625,0.082031 c 0.140625,-0.1640625 0.36328125,-0.5390625 0.59765625,-0.5390625 0.0820312,0 0.11718752,0.070312 0.11718752,0.140625 0,0.234375 -0.09375,0.4570312 -0.49218752,1.828125 -0.0820313,0.3046875 -0.22265625,0.77343748 -0.22265625,1.07812498 0,0.29296875 0.1875,0.52734375 0.4921875,0.52734375 0.86718747,0 1.75781247,-1.48828123 2.13281247,-2.10937503 l 0.023437,0.011719 c -0.3046875,0.9023437 -0.4453125,1.40624998 -0.4453125,1.74609373 0,0.234375 0.1523438,0.3515625 0.375,0.3515625 0.4570313,0 0.9375,-0.609375 1.1601563,-0.97265625 L 4.0076906,-0.97402187 c -0.3046875,0.43359375 -0.4453125,0.5859375 -0.6210937,0.5859375 -0.09375,0 -0.1054688,-0.0585938 -0.1054688,-0.12890625 0,-0.15234375 0.1523438,-0.65624998 0.1992188,-0.83203128 z m 0,0"
         style="fill:#000000;fill-opacity:1;fill-rule:nonzero;stroke:none"
         aria-label="u"
         transform="matrix(0.35277776,0,0,0.35277776,-67.47454,38.502013)"
         clip-path="url(#clipPath123)"
         id="path104839" />
      <path
         d="M 1.8049406,-4.3490312 H 1.7463469 L 0.75025313,-4.17325 v 0.1171875 c 0.0585938,-0.011719 0.12890625,-0.023437 0.1875,-0.023437 0.11718747,0 0.26953127,0.023437 0.26953127,0.1640625 0,0.082031 -0.046875,0.1992188 -0.140625,0.515625 l -0.90234377,3.12890625 c 0.28125,0.2109375 0.59765625,0.33984375 0.96093747,0.33984375 0.9609375,0 1.8164063,-1.0898437 1.8164063,-2.015625 0,-0.4453125 -0.28125,-0.8203125 -0.75,-0.8203125 -0.4335938,0 -0.703125,0.234375 -0.9726563,0.5273438 l -0.011719,-0.011719 z m -0.7734375,2.7304687 c 0.1054688,-0.3867187 0.4335938,-0.8554687 0.9492188,-0.8554687 0.328125,0 0.4570312,0.3398437 0.4570312,0.609375 0,0.703125 -0.4570312,1.7929687 -1.2890625,1.7929687 -0.18749997,0 -0.36328122,-0.08203125 -0.52734372,-0.1640625 z m 0,0"
         style="fill:#000000;fill-opacity:1;fill-rule:nonzero;stroke:none"
         aria-label="b"
         transform="matrix(0.35277776,0,0,0.35277776,-65.54044,39.19448)"
         clip-path="url(#clipPath122)"
         id="path104840" />
      <path
         d="m 2.9760703,-2.7650831 -0.5039062,0.070312 -0.070312,0.28125 c -0.3515625,1.265625 -1.1953125,2.12109372 -1.51171879,2.12109372 -0.0820313,0 -0.12890625,-0.046875 -0.12890625,-0.12890625 0,-0.1875 0.10546875,-0.48046875 0.2109375,-0.83203127 0.28125004,-1.0078125 0.30468754,-1.1132812 0.30468754,-1.2539062 0,-0.1523438 -0.09375,-0.2578125 -0.2578125,-0.2578125 -0.31640629,0 -0.67968754,0.3984375 -0.84375004,0.65625 l 0.09375,0.058594 c 0.10546875,-0.1054687 0.2578125,-0.375 0.421875,-0.375 0.0703125,0 0.0820313,0.058594 0.0820313,0.09375 0,0.1640625 -0.0585938,0.328125 -0.33984375,1.2773438 -0.0585938,0.22265622 -0.15234375,0.55078122 -0.15234375,0.76171872 0,0.2109375 0.12890625,0.36328125 0.33984375,0.36328125 0.60937509,0 1.23046879,-1.03125 1.48828129,-1.47656247 l 0.023437,0.011719 c -0.2226563,0.63281252 -0.3164063,0.98437502 -0.3164063,1.23046877 0,0.15234375 0.1054688,0.234375 0.2578126,0.234375 0.328125,0 0.65625,-0.421875 0.8203125,-0.6796875 l -0.09375,-0.0703125 c -0.2109375,0.3046875 -0.3046875,0.41015625 -0.4335938,0.41015625 -0.058594,0 -0.082031,-0.046875 -0.082031,-0.09375 0,-0.10546875 0.1171875,-0.45703125 0.1523436,-0.5859375 z m 0,0"
         style="fill:#000000;fill-opacity:1;fill-rule:nonzero;stroke:none"
         aria-label="u"
         transform="matrix(0.35277776,0,0,0.35277776,-102.2011,36.624453)"
         clip-path="url(#clipPath121)"
         id="path104841" />
      <path
         d="m 1.9818562,-3.9623234 h -0.09375 l -1.4179687,0.2460937 v 0.1640625 c 0.0820313,-0.011719 0.17578125,-0.035156 0.26953125,-0.035156 0.15234375,0 0.37499995,0.035156 0.37499995,0.2460937 0,0.1171875 -0.070312,0.28125 -0.18749995,0.7382813 l -1.0546875,3.6328125 C -0.3033,1.6392391 -0.443925,1.7447078 -0.94783125,1.7447078 l -0.046875,0.1640625 H 1.0677937 l 0.046875,-0.1640625 c -0.2695312,0 -0.6679687,0 -0.6679687,-0.2929687 0,-0.1523438 0.0820313,-0.3984375 0.12890625,-0.55078129 l 0.28125,-1.01953125 C 1.10295,0.03377031 1.3256062,0.10408281 1.6068562,0.10408281 c 1.5117188,0 2.6015625,-1.80468751 2.6015625,-2.95312501 0,-0.5742187 -0.3398437,-1.1132812 -0.9023437,-1.1132812 -0.703125,0 -1.21875,0.5039062 -1.6171875,1.0195312 l -0.011719,-0.023437 z m -0.7148437,2.4257812 c 0.4570312,-1.546875 1.2070312,-2.0390625 1.6640625,-2.0390625 0.421875,0 0.5507812,0.3867188 0.5507812,0.75 0,1.1953125 -0.9375,2.69531251 -1.7695312,2.69531251 -0.28125,0 -0.5742188,-0.10546875 -0.75,-0.328125 z m 0,0"
         style="fill:#000000;fill-opacity:1;fill-rule:nonzero;stroke:none"
         aria-label="p"
         transform="matrix(0.35277776,0,0,0.35277776,-103.48962,40.123628)"
         clip-path="url(#clipPath120)"
         id="path104842" />
      <path
         d="m 2.9758703,-2.7649672 -0.5039062,0.070312 -0.070312,0.28125 c -0.3515625,1.265625 -1.1953125,2.12109376 -1.51171879,2.12109376 -0.0820313,0 -0.12890625,-0.046875 -0.12890625,-0.12890625 0,-0.1875 0.10546875,-0.48046875 0.2109375,-0.83203121 0.28125004,-1.0078125 0.30468754,-1.1132813 0.30468754,-1.2539063 0,-0.1523437 -0.09375,-0.2578125 -0.2578125,-0.2578125 -0.31640629,0 -0.67968754,0.3984375 -0.84375004,0.65625 l 0.09375,0.058594 c 0.10546875,-0.1054688 0.2578125,-0.375 0.421875,-0.375 0.0703125,0 0.0820313,0.058594 0.0820313,0.09375 0,0.1640625 -0.0585938,0.328125 -0.33984375,1.2773437 -0.0585938,0.22265626 -0.15234375,0.55078126 -0.15234375,0.76171876 0,0.2109375 0.12890625,0.36328125 0.33984375,0.36328125 0.60937509,0 1.23046879,-1.03125 1.48828129,-1.47656251 l 0.023437,0.011719 c -0.2226562,0.63281246 -0.3164062,0.98437496 -0.3164062,1.23046871 0,0.15234375 0.1054686,0.234375 0.2578124,0.234375 0.328125,0 0.65625,-0.421875 0.8203126,-0.6796875 l -0.09375,-0.0703125 c -0.2109376,0.3046875 -0.3046876,0.41015625 -0.4335939,0.41015625 -0.058594,0 -0.082031,-0.046875 -0.082031,-0.09375 0,-0.10546875 0.1171875,-0.45703125 0.1523437,-0.5859375 z m 0,0"
         style="fill:#000000;fill-opacity:1;fill-rule:nonzero;stroke:none"
         aria-label="u"
         transform="matrix(0.35277776,0,0,0.35277776,-102.2011,41.764151)"
         clip-path="url(#clipPath119)"
         id="path104843" />
      <path
         d="m 1.3085363,-0.36204063 c 0.081409,0.12890625 0.2582472,0.3515625 0.7146566,0.48046875 0.3415221,0.09375 0.6367912,0.0585938 1.0061341,-0.09375 0.2850113,-0.1171875 0.7190096,-0.421875 1.0113264,-0.94921875 C 4.3095327,-1.4518844 4.4103707,-2.0378219 4.3841983,-2.3542281 4.360948,-2.8346969 4.3033807,-3.2682906 3.9254284,-3.7604781 3.7423116,-4.0065719 3.3348602,-4.3464156 2.7972588,-4.4284469 2.1713472,-4.5339156 1.880896,-4.3932906 1.6373199,-4.2526656 0.69733238,-3.7370406 0.50442272,-3.0573531 0.51135368,-2.5065719 l 0.0413986,3.7851563 c 0.001896,0.2695312 -0.086819,0.5507812 -0.10606051,0.7851562 H 1.231848 C 1.310305,1.7004594 1.30757,1.3840531 1.307135,1.0324906 Z M 1.2318244,-3.0104781 c -4.346e-4,-0.3515625 0.1211361,-0.5976563 0.3341566,-0.8085938 0.1529656,-0.1289062 0.3599244,-0.1875 0.6185761,-0.140625 0.5673179,0.1054688 0.944431,0.5507813 1.1206469,0.9023438 0.2184903,0.421875 0.3269113,0.9140625 0.2635298,1.4648437 -0.045601,0.3984375 -0.1912313,0.77343752 -0.4011122,0.99609377 -0.1810037,0.19921875 -0.3839838,0.31640625 -0.7229884,0.36328125 -0.7569008,0.10546875 -1.1593471,-0.609375 -1.1509852,-0.79687502 z m 0,0"
         style="fill:#000000;fill-opacity:1;fill-rule:nonzero;stroke:none"
         aria-label=""
         transform="matrix(0.35277776,0,-0.09451023,0.35277776,-103.7886,34.974695)"
         clip-path="url(#clipPath118)"
         id="path104844" />
      <path
         d="M 1.3357344,-5.9299125 0.90214063,-4.3478812 H 1.0662031 c 0.28125,-1.0429688 0.84375,-1.21875 1.8398438,-1.21875 H 3.0818281 L 1.7341719,-0.9846 C 1.5349531,-0.281475 1.3474531,-0.1642875 0.69120313,-0.1642875 L 0.64432813,-2.25e-4 H 3.2224531 l 0.046875,-0.1640625 c -0.421875,0 -0.8203125,-0.0117188 -0.8203125,-0.375 0,-0.2578125 0.1640625,-0.796875 0.2460938,-1.0546875 l 1.1484375,-3.9726562 h 0.4921875 c 0.7851562,0 0.9257812,0.1992187 0.9257812,0.6328125 0,0.1992187 -0.035156,0.3984375 -0.082031,0.5859375 h 0.1640625 l 0.4804687,-1.5820313 z m 0,0"
         style="fill:#000000;fill-opacity:1;fill-rule:nonzero;stroke:none"
         aria-label="T"
         transform="matrix(0.35277776,0,0,0.35277776,-104.11669,45.907878)"
         clip-path="url(#clipPath117)"
         id="path104845" />
      <path
         d="m 2.9758703,-2.7669234 -0.5039062,0.070312 -0.070312,0.28125 c -0.3515625,1.265625 -1.1953125,2.12109371 -1.51171879,2.12109371 -0.0820313,0 -0.12890625,-0.046875 -0.12890625,-0.12890625 0,-0.1875 0.10546875,-0.48046875 0.2109375,-0.83203126 0.28125004,-1.0078125 0.30468754,-1.1132812 0.30468754,-1.2539062 0,-0.1523438 -0.09375,-0.2578125 -0.2578125,-0.2578125 -0.31640629,0 -0.67968754,0.3984375 -0.84375004,0.65625 l 0.09375,0.058594 c 0.10546875,-0.1054687 0.2578125,-0.375 0.421875,-0.375 0.0703125,0 0.0820313,0.058594 0.0820313,0.09375 0,0.1640625 -0.0585938,0.328125 -0.33984375,1.2773438 -0.0585938,0.22265621 -0.15234375,0.55078121 -0.15234375,0.76171871 0,0.2109375 0.12890625,0.36328125 0.33984375,0.36328125 0.60937509,0 1.23046879,-1.03125 1.48828129,-1.47656246 l 0.023437,0.011719 c -0.2226562,0.63281251 -0.3164062,0.98437501 -0.3164062,1.23046876 0,0.15234375 0.1054686,0.234375 0.2578124,0.234375 0.328125,0 0.65625,-0.421875 0.8203126,-0.6796875 l -0.09375,-0.0703125 c -0.2109376,0.3046875 -0.3046876,0.41015625 -0.4335939,0.41015625 -0.058594,0 -0.082031,-0.046875 -0.082031,-0.09375 0,-0.10546875 0.1171875,-0.45703125 0.1523437,-0.5859375 z m 0,0"
         style="fill:#000000;fill-opacity:1;fill-rule:nonzero;stroke:none"
         aria-label="u"
         transform="matrix(0.35277776,0,0,0.35277776,-102.2011,46.581083)"
         clip-path="url(#clipPath116)"
         id="path104846" />
      <path
         d="m 0.95686419,-4.3470344 h -0.140625 l -0.84331403,0.3515625 0.05169329,0.1054688 c 0.05231469,-0.023437 0.13978562,-0.046875 0.21009812,-0.046875 0.09375,0 0.22265625,0 0.21849192,0.421875 l 0.002463,3.24609373 c 0.30260534,0.2109375 0.65668601,0.3515625 1.03168601,0.3515625 0.5039062,0 1.4338518,-0.421875 1.4331653,-1.60546873 -0.00507,-0.9375 -0.586842,-1.359375 -1.0673107,-1.359375 -0.3867188,0 -0.6809303,0.2578125 -0.8805525,0.5625 H 0.9609408 Z m -0.001145,2.2265625 c 0.17556321,-0.1757812 0.38084311,-0.328125 0.63865561,-0.328125 0.5039062,0 0.7858102,0.5273438 0.7873035,1.1015625 -5.888e-4,0.78515628 -0.3797532,1.20703128 -0.7664719,1.20703128 -0.2460938,0 -0.4798474,-0.12890625 -0.6558466,-0.3046875 z m 0,0"
         style="fill:#000000;fill-opacity:1;fill-rule:nonzero;stroke:none"
         aria-label="b"
         transform="matrix(0.35277776,0,-0.09451155,0.35277776,-50.35071,36.624425)"
         clip-path="url(#clipPath115)"
         id="path104847" />
      <path
         d="m 1.9797141,-3.9623234 h -0.09375 l -1.41796879,0.2460937 v 0.1640625 c 0.0820313,-0.011719 0.17578125,-0.035156 0.26953125,-0.035156 0.15234375,0 0.37500004,0.035156 0.37500004,0.2460937 0,0.1171875 -0.070312,0.28125 -0.18750004,0.7382813 l -1.0546875,3.6328125 c -0.17578125,0.609375 -0.31640625,0.7148437 -0.8203125,0.7148437 l -0.046875,0.1640625 H 1.0656516 L 1.1125266,1.744708 c -0.26953129,0 -0.66796879,0 -0.66796879,-0.2929687 0,-0.1523438 0.0820313,-0.3984375 0.12890625,-0.55078129 l 0.28125,-1.01953125 C 1.1008078,0.03377031 1.3234641,0.10408281 1.6047141,0.10408281 c 1.5117187,0 2.6015625,-1.80468751 2.6015625,-2.95312501 0,-0.5742187 -0.3398438,-1.1132812 -0.9023438,-1.1132812 -0.703125,0 -1.21875,0.5039062 -1.6171875,1.0195312 l -0.011719,-0.023437 z m -0.7148438,2.4257812 c 0.4570313,-1.546875 1.2070313,-2.0390625 1.6640625,-2.0390625 0.421875,0 0.5507813,0.3867188 0.5507813,0.75 0,1.1953125 -0.9375,2.69531251 -1.7695313,2.69531251 -0.28125,0 -0.5742187,-0.10546875 -0.74999999,-0.328125 z m 0,0"
         style="fill:#000000;fill-opacity:1;fill-rule:nonzero;stroke:none"
         aria-label="p"
         transform="matrix(0.35277776,0,0,0.35277776,-51.39317,40.123628)"
         clip-path="url(#clipPath114)"
         id="path104848" />
      <path
         d="m 1.8049156,-4.3469937 h -0.058594 l -0.99609377,0.1757812 v 0.1171875 c 0.0585938,-0.011719 0.12890625,-0.023437 0.1875,-0.023437 0.11718747,0 0.26953127,0.023437 0.26953127,0.1640625 0,0.082031 -0.046875,0.1992188 -0.140625,0.515625 l -0.90234377,3.12890625 c 0.28125,0.2109375 0.59765625,0.33984375 0.96093747,0.33984375 0.9609375,0 1.8164063,-1.0898437 1.8164063,-2.015625 0,-0.4453125 -0.28125,-0.8203125 -0.75,-0.8203125 -0.4335938,0 -0.703125,0.234375 -0.9726563,0.5273438 l -0.011719,-0.011719 z M 1.0314781,-1.616525 c 0.1054688,-0.3867187 0.4335938,-0.8554687 0.9492188,-0.8554687 0.328125,0 0.4570312,0.3398437 0.4570312,0.609375 0,0.703125 -0.4570312,1.7929687 -1.2890625,1.7929687 -0.18749997,0 -0.36328122,-0.08203125 -0.52734372,-0.1640625 z m 0,0"
         style="fill:#000000;fill-opacity:1;fill-rule:nonzero;stroke:none"
         aria-label="b"
         transform="matrix(0.35277776,0,0,0.35277776,-50.11258,41.45099)"
         clip-path="url(#clipPath113)"
         id="path104849" />
      <path
         d="m 1.3094926,-0.36204063 c 0.081409,0.12890625 0.2582472,0.3515625 0.7146565,0.48046875 0.3415222,0.09375 0.6367912,0.0585938 1.0061341,-0.09375 0.2850114,-0.1171875 0.7190097,-0.421875 1.0113264,-0.94921875 C 4.3104889,-1.4518844 4.411327,-2.0378219 4.3851545,-2.3542281 4.3619042,-2.8346969 4.3043369,-3.2682906 3.9263847,-3.7604781 3.7432679,-4.0065719 3.3358165,-4.3464156 2.798215,-4.4284469 2.1723034,-4.5339156 1.8818523,-4.3932906 1.6382761,-4.2526656 0.69828863,-3.7370406 0.50537897,-3.0573531 0.51230993,-2.5065719 l 0.0413986,3.7851563 c 0.001896,0.2695312 -0.086819,0.5507812 -0.10606051,0.7851562 H 1.2328042 c 0.078457,-0.3632812 0.075722,-0.6796875 0.075288,-1.03125 z M 1.2327807,-3.0104781 c -4.347e-4,-0.3515625 0.1211361,-0.5976563 0.3341565,-0.8085938 0.1529656,-0.1289062 0.3599244,-0.1875 0.6185761,-0.140625 0.5673179,0.1054688 0.944431,0.5507813 1.1206469,0.9023438 0.2184904,0.421875 0.3269114,0.9140625 0.2635298,1.4648437 -0.045601,0.3984375 -0.1912312,0.77343752 -0.4011122,0.99609377 -0.1810037,0.19921875 -0.3839838,0.31640625 -0.7229883,0.36328125 -0.7569009,0.10546875 -1.1593472,-0.609375 -1.1509853,-0.79687502 z m 0,0"
         style="fill:#000000;fill-opacity:1;fill-rule:nonzero;stroke:none"
         aria-label=""
         transform="matrix(0.35277776,0,-0.09451023,0.35277776,-51.19208,34.974695)"
         clip-path="url(#clipPath112)"
         id="path104850" />
      <path
         d="M 1.335225,-5.9289422 0.90163125,-4.3469109 H 1.0656938 c 0.28125,-1.0429688 0.84375,-1.21875 1.8398437,-1.21875 h 0.1757813 l -1.3476563,4.58203121 c -0.1992187,0.703125 -0.3867187,0.8203125 -1.04296875,0.8203125 L 0.64381875,7.453125e-4 H 3.2219438 L 3.2688188,-0.16331719 c -0.421875,0 -0.8203125,-0.0117188 -0.8203125,-0.375 0,-0.2578125 0.1640625,-0.79687501 0.2460937,-1.05468751 L 3.8430375,-5.5656609 H 4.335225 c 0.7851563,0 0.9257813,0.1992187 0.9257813,0.6328125 0,0.1992187 -0.035156,0.3984375 -0.082031,0.5859375 h 0.1640625 l 0.4804688,-1.5820313 z m 0,0"
         style="fill:#000000;fill-opacity:1;fill-rule:nonzero;stroke:none"
         aria-label="T"
         transform="matrix(0.35277776,0,0,0.35277776,-52.02817,45.575773)"
         clip-path="url(#clipPath111)"
         id="path104851" />
      <path
         d="m 1.8049156,-4.3489547 h -0.058594 l -0.99609377,0.1757813 v 0.1171875 c 0.0585938,-0.011719 0.12890625,-0.023437 0.1875,-0.023437 0.11718747,0 0.26953127,0.023437 0.26953127,0.1640625 0,0.082031 -0.046875,0.1992187 -0.140625,0.515625 l -0.90234377,3.12890621 c 0.28125,0.2109375 0.59765625,0.33984375 0.96093747,0.33984375 0.9609375,0 1.8164063,-1.08984376 1.8164063,-2.01562496 0,-0.4453125 -0.28125,-0.8203125 -0.75,-0.8203125 -0.4335938,0 -0.703125,0.234375 -0.9726563,0.5273437 l -0.011719,-0.011719 z m -0.7734375,2.7304688 c 0.1054688,-0.3867188 0.4335938,-0.8554688 0.9492188,-0.8554688 0.328125,0 0.4570312,0.3398438 0.4570312,0.609375 0,0.703125 -0.4570312,1.79296876 -1.2890625,1.79296876 -0.18749997,0 -0.36328122,-0.08203125 -0.52734372,-0.1640625 z m 0,0"
         style="fill:#000000;fill-opacity:1;fill-rule:nonzero;stroke:none"
         aria-label="b"
         transform="matrix(0.35277776,0,0,0.35277776,-50.11258,46.581083)"
         clip-path="url(#clipPath110)"
         id="path104852" />
      <path
         d="m 326.243,657.794 h 14.784 v -0.888 h -14.784 z m 14.354,0.456 4.462,-0.888 -4.462,-0.913"
         style="fill:#000000;fill-opacity:1;fill-rule:nonzero;stroke:none"
         transform="matrix(0.35277776,0,0,-0.35277776,-184.13198,272.6524)"
         clip-path="url(#clipPath109)"
         id="path104853" />
      <path
         d="m 307.32,632.392 h 0.913 v -14.784 h -0.913 z m -0.431,-0.457 0.887,4.489 0.888,-4.489"
         style="fill:#000000;fill-opacity:1;fill-rule:nonzero;stroke:none"
         transform="matrix(0.35277776,0,0,-0.35277776,-184.13198,272.6524)"
         clip-path="url(#clipPath108)"
         id="path104854" />
      <path
         d="M 5.9402328,-1.4299234 H 5.9167953 L 4.8269516,-4.5002359 c -0.09375,-0.234375 -0.234375,-0.5976563 -0.234375,-0.8671875 0,-0.375 0.2578125,-0.3984375 0.6328125,-0.3984375 V -5.9299234 H 2.9050766 v 0.1640625 c 0.5976562,0 0.7265625,0.3984375 0.9140625,0.9023437 l 0.2460937,0.6679688 -0.984375,2.765625 H 3.0574203 L 1.8503891,-4.8752359 c -0.046875,-0.140625 -0.1289063,-0.375 -0.1289063,-0.515625 0,-0.3046875 0.2578125,-0.375 0.5742188,-0.375 V -5.9299234 H 0.10429531 v 0.1640625 c 0.5390625,0 0.6328125,0.2226562 0.8203125,0.7851562 L 2.7527328,0.12867031 h 0.1875 l 1.3125,-3.75000001 h 0.011719 l 1.347656,3.75000001 H 5.7878891 L 7.4871078,-4.8049234 c 0.1523438,-0.46875 0.28125,-0.9609375 0.8789063,-0.9609375 v -0.1640625 h -1.78125 v 0.1640625 c 0.4101562,0 0.65625,0.082031 0.65625,0.421875 0,0.1992187 -0.140625,0.5976562 -0.2109375,0.8085937 z m 5.7568362,-1.6171875 c 0,-0.2460938 0,-1.078125 -1.3125,-1.078125 -1.2187502,0 -1.4765627,0.7617187 -1.4765627,0.9960937 0,0.234375 0.1171875,0.4335938 0.3632812,0.4335938 0.28125,0 0.375,-0.2109375 0.375,-0.6328125 0,-0.3632813 0.3046875,-0.5273438 0.5976565,-0.5273438 0.691406,0 0.726562,0.5742188 0.726562,1.2539063 -0.726562,0.3164062 -2.2148435,0.6796875 -2.2148435,1.67578121 0,0.59765625 0.3398438,1.0546875 0.9609375,1.0546875 0.539063,0 0.855469,-0.36328125 1.253906,-0.65625 0,0.328125 0.105469,0.65625 0.492188,0.65625 0.375,0 0.726562,-0.38671875 0.925781,-0.65625 v -0.24609375 c -0.117187,0.10546875 -0.316406,0.33984375 -0.46875,0.33984375 -0.222656,0 -0.222656,-0.28125 -0.222656,-0.69140621 z m -0.726563,2.22656246 c -0.199218,0.17578125 -0.574218,0.4453125 -0.855468,0.4453125 -0.398438,0 -0.632813,-0.375 -0.632813,-0.73828126 0,-0.6796875 0.890625,-0.9960937 1.488281,-1.2304687 z m 3.960938,-0.140625 -0.890625,-2.10937496 c -0.04687,-0.140625 -0.128906,-0.2929688 -0.128906,-0.4453125 0,-0.2929688 0.1875,-0.328125 0.46875,-0.328125 v -0.1640625 h -1.875 v 0.1640625 c 0.46875,0.070312 0.574218,0.28125 0.738281,0.6796875 l 1.382812,3.29296871 h 0.175782 L 16.18535,-3.2111734 c 0.128906,-0.328125 0.269531,-0.6328125 0.632812,-0.6328125 v -0.1640625 h -1.300781 v 0.1640625 c 0.257813,0 0.457032,0.011719 0.457032,0.234375 0,0.1289062 -0.09375,0.3398437 -0.152344,0.4570312 z M 20.5916,-2.4846109 c 0,-0.9726563 -0.609375,-1.640625 -1.535156,-1.640625 -1.265625,0 -1.851563,1.03125 -1.851563,2.1914062 0,1.23046876 0.773438,2.06250001 1.746094,2.06250001 0.902344,0 1.488281,-0.76171875 1.640625,-1.59375001 l -0.140625,-0.082031 c -0.199219,0.57421871 -0.550781,0.96093746 -1.195313,0.96093746 -0.972656,0 -1.441406,-1.00781246 -1.441406,-1.89843746 z m -2.765625,-0.2695313 c 0.03516,-0.5273437 0.410156,-1.0546875 0.9375,-1.0546875 0.632812,0 0.914062,0.4921875 0.914062,1.0546875 z m 8.179687,-1.3710937 H 25.8416 c -0.03516,0.09375 -0.07031,0.1640625 -0.1875,0.1640625 -0.105469,0 -0.222656,-0.046875 -0.328125,-0.070312 -0.1875,-0.046875 -0.328125,-0.09375 -0.515625,-0.09375 -0.714844,0 -1.242188,0.46875 -1.242188,1.1953125 0,1.2773437 2.085938,1.125 2.085938,2.17968746 0,0.38671875 -0.328125,0.609375 -0.691406,0.609375 -0.667969,0 -1.148438,-0.59765625 -1.230469,-1.23046876 h -0.152344 v 1.42968751 h 0.152344 c 0.02344,-0.0703125 0.08203,-0.1171875 0.164062,-0.1171875 0.07031,0 0.175782,0.03515625 0.222657,0.046875 0.257812,0.0703125 0.550781,0.140625 0.808593,0.140625 0.679688,0 1.371094,-0.46875 1.371094,-1.20703121 0,-1.3828125 -2.214844,-1.2539063 -2.214844,-2.2382813 0,-0.3632812 0.363282,-0.5390625 0.679688,-0.5390625 0.703125,0 0.949219,0.4921875 1.078125,1.1015625 h 0.164062 z m 2.006836,0.1171875 v -1.3125 h -0.128906 c -0.328125,0.8203125 -0.726562,1.2539062 -1.21875,1.4648437 v 0.1757813 h 0.632813 v 2.77734371 c 0,0.7734375 0.46875,0.9609375 0.761718,0.9609375 0.492188,0 0.867188,-0.421875 1.019532,-0.8671875 h -0.175782 c -0.05859,0.1875 -0.269531,0.36328125 -0.46875,0.36328125 -0.421875,0 -0.421875,-0.41015625 -0.421875,-0.77343746 v -2.4609375 h 0.949219 v -0.328125 z m 2.522461,-0.1171875 h -0.199218 l -1.207032,0.4921875 0.05859,0.1523437 c 0.09375,-0.035156 0.210938,-0.070312 0.304688,-0.070312 0.128906,0 0.316406,0 0.316406,0.609375 v 2.17968751 c 0,0.52734375 -0.210938,0.5859375 -0.621094,0.59765625 v 0.1640625025 h 2.085938 V -0.16429844 c -0.738282,0 -0.738282,-0.28125 -0.738282,-1.00781246 v -1.6875 c 0.08203,-0.1640625 0.363282,-0.6679688 0.574219,-0.6679688 0.1875,0 0.339844,0.2929688 0.632813,0.2929688 0.210937,0 0.386718,-0.1992188 0.386718,-0.3984375 0,-0.2929688 -0.292968,-0.4921875 -0.5625,-0.4921875 -0.480468,0 -0.820312,0.5390625 -1.019531,0.8554687 h -0.01172 z m 5.323243,0.1171875 h -1.382813 v 0.1640625 c 0.597656,0.023437 0.65625,0.1523437 0.65625,0.703125 v 2.15624996 c -0.246094,0.24609375 -0.621094,0.57421875 -0.984375,0.57421875 -0.457031,0 -0.667969,-0.3046875 -0.667969,-0.80859371 v -2.7890625 h -1.394531 v 0.1640625 c 0.597656,0.023437 0.667969,0.1523437 0.667969,0.703125 v 1.9453125 c 0,0.76171871 0.351562,1.32421871 1.019531,1.32421871 0.585938,0 0.960938,-0.421875 1.359375,-0.85546875 v 0.85546875 h 0.199219 l 1.207031,-0.4921875 -0.05859,-0.15234375 c -0.09375,0.0351563 -0.210937,0.0703125 -0.304687,0.0703125 -0.128906,0 -0.316406,0 -0.316406,-0.60937496 z m 4.230468,2.4257812 c -0.199218,0.5507813 -0.597656,1.03125001 -1.242187,1.03125001 -0.914063,0 -1.300781,-1.06640621 -1.300781,-1.82812501 0,-0.6679687 0.304687,-1.4414062 1.066406,-1.4414062 0.351562,0 0.5625,0.1640625 0.597656,0.515625 0.03516,0.328125 0.128906,0.515625 0.492188,0.515625 0.234375,0 0.398437,-0.140625 0.398437,-0.375 0,-0.609375 -0.808594,-0.9609375 -1.347656,-0.9609375 -0.996094,0 -1.910156,0.8203125 -1.910156,2.109375 0,1.23046871 0.703125,2.14453121 1.710937,2.14453121 0.902344,0 1.511719,-0.8203125 1.664063,-1.65234371 z m 1.842774,-2.4257812 v -1.3125 h -0.128907 c -0.328125,0.8203125 -0.726562,1.2539062 -1.21875,1.4648437 v 0.1757813 H 41.2166 v 2.77734371 c 0,0.7734375 0.46875,0.9609375 0.761719,0.9609375 0.492187,0 0.867187,-0.421875 1.019531,-0.8671875 h -0.175781 c -0.05859,0.1875 -0.269532,0.36328125 -0.46875,0.36328125 -0.421875,0 -0.421875,-0.41015625 -0.421875,-0.77343746 v -2.4609375 h 0.949218 v -0.328125 z m 4.866211,0 h -1.382813 v 0.1640625 c 0.597656,0.023437 0.65625,0.1523437 0.65625,0.703125 v 2.15624996 c -0.246094,0.24609375 -0.621094,0.57421875 -0.984375,0.57421875 -0.457031,0 -0.667969,-0.3046875 -0.667969,-0.80859371 v -2.7890625 h -1.394531 v 0.1640625 c 0.597656,0.023437 0.667969,0.1523437 0.667969,0.703125 v 1.9453125 c 0,0.76171871 0.351562,1.32421871 1.019531,1.32421871 0.585938,0 0.960938,-0.421875 1.359375,-0.85546875 v 0.85546875 h 0.199219 l 1.207031,-0.4921875 -0.05859,-0.15234375 c -0.09375,0.0351563 -0.210937,0.0703125 -0.304687,0.0703125 -0.128906,0 -0.316406,0 -0.316406,-0.60937496 z m 2.132812,-0.1171875 h -0.199219 l -1.207031,0.4921875 0.05859,0.1523437 c 0.09375,-0.035156 0.210937,-0.070312 0.304687,-0.070312 0.128907,0 0.316407,0 0.316407,0.609375 v 2.17968751 c 0,0.52734375 -0.210938,0.5859375 -0.621094,0.59765625 v 0.1640625025 h 2.085937 V -0.16429844 c -0.738281,0 -0.738281,-0.28125 -0.738281,-1.00781246 v -1.6875 c 0.08203,-0.1640625 0.363281,-0.6679688 0.574219,-0.6679688 0.1875,0 0.339844,0.2929688 0.632812,0.2929688 0.210938,0 0.386719,-0.1992188 0.386719,-0.3984375 0,-0.2929688 -0.292969,-0.4921875 -0.5625,-0.4921875 -0.480469,0 -0.820312,0.5390625 -1.019531,0.8554687 h -0.01172 z m 5.217774,1.640625 c 0,-0.9726563 -0.609375,-1.640625 -1.535157,-1.640625 -1.265625,0 -1.851562,1.03125 -1.851562,2.1914062 0,1.23046876 0.773437,2.06250001 1.746094,2.06250001 0.902343,0 1.488281,-0.76171875 1.640625,-1.59375001 l -0.140625,-0.082031 c -0.199219,0.57421871 -0.550782,0.96093746 -1.195313,0.96093746 -0.972656,0 -1.441406,-1.00781246 -1.441406,-1.89843746 z m -2.765625,-0.2695313 c 0.03516,-0.5273437 0.410156,-1.0546875 0.9375,-1.0546875 0.632812,0 0.914062,0.4921875 0.914062,1.0546875 z m 0,0"
         style="fill:#000000;fill-opacity:1;fill-rule:nonzero;stroke:none"
         aria-label="Wave structure"
         transform="matrix(0.35277776,0,0,0.35277776,-84.799456,57.552648)"
         clip-path="url(#clipPath107)"
         id="path104855" />
    </g>
  </g>
</svg>
